<?xml version="1.0" encoding="UTF-8"?>
<svg version="1.1" xmlns="http://www.w3.org/2000/svg" width="500" height="500">
<path d="M0 0 C9.97163032 3.35988844 17.96019293 7.88248606 23.29296875 17.21484375 C25.11992547 24.06593145 24.61858487 30.31361152 21.44921875 36.65234375 C13.64018726 49.84093027 13.64018726 49.84093027 8.04296875 52.02734375 C8.04296875 52.68734375 8.04296875 53.34734375 8.04296875 54.02734375 C4.58143029 57.02734375 4.58143029 57.02734375 2.04296875 57.02734375 C2.04296875 57.68734375 2.04296875 58.34734375 2.04296875 59.02734375 C-18.61145757 74.00629293 -43.41081451 83.64587185 -68.14453125 89.21484375 C-68.83200439 89.36969238 -69.51947754 89.52454102 -70.2277832 89.68408203 C-81.82883633 92.18118189 -93.08354736 93.37013325 -104.95703125 93.33984375 C-106.2203125 93.35595703 -107.48359375 93.37207031 -108.78515625 93.38867188 C-122.98643587 93.39597706 -138.64026429 91.07231198 -149.26171875 80.859375 C-154.6515328 75.03489852 -155.68825641 70.32314956 -155.39453125 62.30078125 C-154.08202597 52.48042926 -147.6624963 45.86475892 -140.95703125 39.02734375 C-140.24675781 38.27195313 -139.53648437 37.5165625 -138.8046875 36.73828125 C-136.95703125 35.02734375 -136.95703125 35.02734375 -134.95703125 35.02734375 C-134.95703125 34.36734375 -134.95703125 33.70734375 -134.95703125 33.02734375 C-131.31285385 30.59789215 -129.24461853 30.865548 -124.95703125 31.02734375 C-124.20703125 33.77734375 -124.20703125 33.77734375 -123.95703125 37.02734375 C-125.39453125 38.96484375 -125.39453125 38.96484375 -127.95703125 41.02734375 C-128.61058594 41.62160156 -129.26414063 42.21585938 -129.9375 42.828125 C-135.65768255 48.02734375 -135.65768255 48.02734375 -137.95703125 48.02734375 C-138.23289063 48.58808594 -138.50875 49.14882812 -138.79296875 49.7265625 C-139.58183477 51.28576413 -140.40074398 52.83006042 -141.24609375 54.359375 C-143.95258641 59.38458798 -145.87500732 63.17524633 -144.95703125 69.02734375 C-142.70388412 74.12657147 -139.44755225 76.9883986 -134.31640625 79.12890625 C-127.83760702 81.43801674 -121.81985822 82.81744346 -114.95703125 83.02734375 C-114.32023437 83.04780762 -113.6834375 83.06827148 -113.02734375 83.08935547 C-102.8616064 83.37096129 -93.00247602 82.90422801 -82.94580078 81.33496094 C-80.95074941 81.02637209 -78.95281461 80.7493795 -76.953125 80.47265625 C-61.09943172 78.12515197 -45.25615877 73.28052438 -30.95703125 66.02734375 C-29.68461944 65.42361477 -28.41108515 64.82224844 -27.13671875 64.22265625 C-17.67619947 59.71260316 -9.3563241 54.53595033 -1.28125 47.79296875 C1.04296875 46.02734375 1.04296875 46.02734375 3.04296875 46.02734375 C3.04296875 45.36734375 3.04296875 44.70734375 3.04296875 44.02734375 C3.70296875 44.02734375 4.36296875 44.02734375 5.04296875 44.02734375 C5.04296875 43.36734375 5.04296875 42.70734375 5.04296875 42.02734375 C5.70296875 42.02734375 6.36296875 42.02734375 7.04296875 42.02734375 C7.41421875 41.25390625 7.41421875 41.25390625 7.79296875 40.46484375 C9.04296875 38.02734375 9.04296875 38.02734375 11.16796875 35.08984375 C14.24174471 29.89857768 13.35789204 23.84467666 13.04296875 18.02734375 C12.38296875 18.02734375 11.72296875 18.02734375 11.04296875 18.02734375 C11.04296875 17.36734375 11.04296875 16.70734375 11.04296875 16.02734375 C10.16511719 15.59421875 10.16511719 15.59421875 9.26953125 15.15234375 C7.91786163 14.46939489 6.57582605 13.76623342 5.25390625 13.02734375 C-2.39216071 8.86267749 -10.33105467 7.91506379 -18.92578125 7.37109375 C-20.95703125 7.02734375 -20.95703125 7.02734375 -22.95703125 5.02734375 C-23.08203125 1.90234375 -23.08203125 1.90234375 -22.95703125 -0.97265625 C-17.0696606 -3.91634158 -6.2034814 -1.70623411 0 0 Z " fill="#5CA08C" transform="translate(156.95703125,190.97265625)"/>
<path d="M0 0 C0 0.66 0 1.32 0 2 C0.61875 2.309375 1.2375 2.61875 1.875 2.9375 C3.25 3.625 4.625 4.3125 6 5 C6 5.66 6 6.32 6 7 C6.66 7 7.32 7 8 7 C16.61881467 16.44071194 21.22532893 28.6614774 22.0625 41.25 C22.1126123 41.97711182 22.16272461 42.70422363 22.21435547 43.45336914 C22.31321325 46.33285777 22.2789727 48.49418099 20.87109375 51.046875 C18.06441712 52.47658084 15.97325229 51.726795 13 51 C12.89042969 49.94941406 12.78085938 48.89882812 12.66796875 47.81640625 C10.9185937 31.91661502 7.05113649 19.32227206 -5.80078125 8.65234375 C-15.51233251 1.35574307 -26.01259245 -0.73542378 -38 0 C-43.97931569 0.87115858 -49.391425 2.81360636 -55 5 C-56.32869387 5.35137088 -57.6611269 5.68966517 -59 6 C-59 6.66 -59 7.32 -59 8 C-60.5390625 9.4453125 -60.5390625 9.4453125 -62.625 11.125 C-70.25046342 17.65918685 -75.93456306 25.61544225 -77.39990234 35.77172852 C-77.57029382 38.65164433 -77.60559551 41.49049023 -77.5625 44.375 C-77.55150269 45.88574097 -77.55150269 45.88574097 -77.5402832 47.42700195 C-77.31236009 56.10841791 -75.76565329 63.11892808 -70.3515625 70.13671875 C-68.58472118 72.57250867 -68.61263088 74.05599465 -69 77 C-71 79 -71 79 -73.43359375 79.3359375 C-76 79 -76 79 -77.66015625 77.6015625 C-81.39336414 72.33971517 -83.94295463 67.11179827 -86 61 C-86.4125 59.80375 -86.825 58.6075 -87.25 57.375 C-90.6604595 42.22764386 -87.01420118 27.02090387 -79 14 C-74.35334436 7.99912778 -69.043064 2.59272864 -63 -2 C-62.01 -2 -61.02 -2 -60 -2 C-60 -2.66 -60 -3.32 -60 -4 C-58.50292061 -4.63196384 -57.00213297 -5.25514393 -55.5 -5.875 C-54.6646875 -6.22304687 -53.829375 -6.57109375 -52.96875 -6.9296875 C-34.32815877 -13.65011118 -16.70954082 -10.04581613 0 0 Z " fill="#569E87" transform="translate(125,194)"/>
<path d="M0 0 C6.20576043 4.30955585 9.14149753 9.80701545 10.68359375 17.03125 C11.94368891 24.8718421 9.96132119 30.42759355 6.25 37.1875 C3.61491262 40.48135923 0.80311283 43.1151239 -3 45 C-4.32 45 -5.64 45 -7 45 C-7.33 46.32 -7.66 47.64 -8 49 C-8.66 49 -9.32 49 -10 49 C-10 49.66 -10 50.32 -10 51 C-16.08139953 54.04069976 -20.69038433 54.86192313 -27.5 53.5 C-28.2425 53.2525 -28.2425 53.2525 -29 53 C-29 52.34 -29 51.68 -29 51 C-29.58265625 50.91234375 -30.1653125 50.8246875 -30.765625 50.734375 C-33.60456853 49.80129566 -34.78562286 48.48300992 -36.75 46.25 C-37.36359375 45.57453125 -37.9771875 44.8990625 -38.609375 44.203125 C-40.25932375 41.58916125 -40.27588936 40.03478294 -40 37 C-32.08234446 33.29738029 -25.55292687 31.64123317 -17 34 C-17.03480469 33.31035156 -17.06960937 32.62070313 -17.10546875 31.91015625 C-17.34854017 23.47210568 -16.15087794 15.94248765 -11 9 C-10.34 9 -9.68 9 -9 9 C-8.814375 8.443125 -8.62875 7.88625 -8.4375 7.3125 C-6.33639286 3.93245808 -3.29334006 2.14859619 0 0 Z " fill="#4A9881" transform="translate(42,162)"/>
<path d="M0 0 C9.4582374 4.15239691 16.76503188 11.49329804 20.875 21 C21.24625 21.99 21.6175 22.98 22 24 C23.32 23.34 24.64 22.68 26 22 C25.855625 21.195625 25.71125 20.39125 25.5625 19.5625 C26.21282733 14.26697745 29.31140846 10.75535338 33 7 C33.66 7 34.32 7 35 7 C35 6.34 35 5.68 35 5 C35.66 5 36.32 5 37 5 C37.33 4.01 37.66 3.02 38 2 C41.37462715 2.54723683 43.08235 3.0549 46 5 C45.57605423 10.13552486 42.99334768 12.94875848 39.75 16.6875 C39.03263672 17.55858398 39.03263672 17.55858398 38.30078125 18.44726562 C35.4357137 21.80537326 33.28395405 23.59676375 29 25 C27.19651922 27.01317219 27.19651922 27.01317219 26 29 C26.66 29.61875 27.32 30.2375 28 30.875 C30 33 30 33 30 35 C30.66 35 31.32 35 32 35 C32 35.66 32 36.32 32 37 C32.66 37 33.32 37 34 37 C35.69140625 38.64453125 35.69140625 38.64453125 37.5625 40.8125 C38.49255859 41.87404297 38.49255859 41.87404297 39.44140625 42.95703125 C41 45 41 45 42 48 C42.66 48 43.32 48 44 48 C44.495 50.475 44.495 50.475 45 53 C43.68 53.99 42.36 54.98 41 56 C37.80978277 54.63515079 36.12755122 53.23913256 34.08984375 50.4453125 C33.57486328 49.74792969 33.05988281 49.05054688 32.52929688 48.33203125 C32.00400391 47.60371094 31.47871094 46.87539062 30.9375 46.125 C30.40833984 45.40441406 29.87917969 44.68382812 29.33398438 43.94140625 C28.34516194 42.59402712 27.35965901 41.24420064 26.37866211 39.89111328 C24.93702698 37.91361979 23.47220407 35.95480953 22 34 C21.54625 34.66 21.0925 35.32 20.625 36 C20.08875 36.66 19.5525 37.32 19 38 C18.34 38 17.68 38 17 38 C16.90976563 38.54140625 16.81953125 39.0828125 16.7265625 39.640625 C15.14942304 44.76208863 11.66987911 49.16802376 8 53 C5.16740794 53.97071975 3.98152148 53.68326534 1 53 C1.1748664 47.2658392 2.54625652 44.80572419 6.66015625 40.86132812 C7.26730469 40.30896484 7.87445313 39.75660156 8.5 39.1875 C9.69968284 38.05786234 10.89768359 36.92643481 12.09375 35.79296875 C12.62677734 35.3033667 13.15980469 34.81376465 13.70898438 34.30932617 C15.12460758 33.00873471 15.12460758 33.00873471 16 31 C16.66 31 17.32 31 18 31 C18 29.68 18 28.36 18 27 C17.443125 26.79375 16.88625 26.5875 16.3125 26.375 C13.02987629 24.42316968 11.29326754 22.05769006 9 19 C9 18.34 9 17.68 9 17 C8.34 17 7.68 17 7 17 C2.83874514 12.58357385 -0.61772023 7.989879 -2 2 C-1.34 1.34 -0.68 0.68 0 0 Z " fill="#63A190" transform="translate(69,207)"/>
<path d="M0 0 C0.85980469 -0.020625 1.71960938 -0.04125 2.60546875 -0.0625 C7.42546699 -0.09220723 10.90255409 -0.02509858 14.75 3.25 C14.75 3.91 14.75 4.57 14.75 5.25 C15.41 5.25 16.07 5.25 16.75 5.25 C19.12221047 9.84615778 19.22522861 14.19612651 18.75 19.25 C17.75 22.3125 17.75 22.3125 16.75 24.25 C16.09 24.25 15.43 24.25 14.75 24.25 C14.75 24.91 14.75 25.57 14.75 26.25 C8.67122066 29.49201565 3.56598387 29.58278764 -3.25 29.25 C-3.22679687 30.16523438 -3.20359375 31.08046875 -3.1796875 32.0234375 C-3.16164062 33.21195312 -3.14359375 34.40046875 -3.125 35.625 C-3.10179687 36.80835938 -3.07859375 37.99171875 -3.0546875 39.2109375 C-3.25 42.25 -3.25 42.25 -5.25 44.25 C-7.875 43.875 -7.875 43.875 -10.25 43.25 C-10.27464574 37.28686834 -10.292834 31.32376605 -10.30493164 25.3605957 C-10.30997278 23.33031702 -10.31680557 21.30004198 -10.32543945 19.26977539 C-10.33751467 16.35822653 -10.34323034 13.4467255 -10.34765625 10.53515625 C-10.35281754 9.6216188 -10.35797882 8.70808136 -10.36329651 7.76686096 C-10.36349168 5.59424573 -10.31211805 3.42172704 -10.25 1.25 C-8.02365101 -0.97634899 -2.98808934 0.01760288 0 0 Z M-3.25 6.25 C-3.25 12.19 -3.25 18.13 -3.25 24.25 C3.64100128 24.82125785 3.64100128 24.82125785 9.8125 22.375 C12.39775856 19.53955512 12.72430068 18.72115424 12.9375 14.8125 C13.04822517 11.14461901 13.04822517 11.14461901 10.75 8.25 C10.09 8.25 9.43 8.25 8.75 8.25 C8.75 7.59 8.75 6.93 8.75 6.25 C4.79 6.25 0.83 6.25 -3.25 6.25 Z " fill="#67A593" transform="translate(196.25,223.75)"/>
<path d="M0 0 C0.81210937 -0.020625 1.62421875 -0.04125 2.4609375 -0.0625 C7.17874868 -0.09323493 10.46711342 0.08221693 14.25 3.25 C14.25 3.91 14.25 4.57 14.25 5.25 C14.91 5.25 15.57 5.25 16.25 5.25 C18.91979407 11.23033871 19.82768813 14.83406828 18.25 21.25 C16.3125 24.25 16.3125 24.25 14.25 26.25 C13.59 26.25 12.93 26.25 12.25 26.25 C12.25 26.91 12.25 27.57 12.25 28.25 C6.7735992 29.97154184 0.91654984 29.3066655 -4.75 29.25 C-4.75 34.2 -4.75 39.15 -4.75 44.25 C-6.4 43.92 -8.05 43.59 -9.75 43.25 C-9.77464574 37.28686834 -9.792834 31.32376605 -9.80493164 25.3605957 C-9.80997278 23.33031702 -9.81680557 21.30004198 -9.82543945 19.26977539 C-9.83751467 16.35822653 -9.84323034 13.4467255 -9.84765625 10.53515625 C-9.85281754 9.6216188 -9.85797882 8.70808136 -9.86329651 7.76686096 C-9.86349168 5.59424573 -9.81211805 3.42172704 -9.75 1.25 C-7.60552692 -0.89447308 -2.96113967 0.01844947 0 0 Z M-4.75 6.25 C-4.75 12.19 -4.75 18.13 -4.75 24.25 C2.63265517 24.86033916 2.63265517 24.86033916 9.3125 22.4375 C12.33849246 19.06881662 12.33849246 19.06881662 13.5 14.8125 C13.23404524 12.0864637 12.74493828 10.5317479 11.25 8.25 C7.61804504 5.82869669 5.86650652 6.03977215 1.5625 6.125 C-0.520625 6.16625 -2.60375 6.2075 -4.75 6.25 Z " fill="#48927B" transform="translate(368.75,223.75)"/>
<path d="M0 0 C3.39488422 2.05107588 4.80323081 3.70484621 7 7 C7.80243145 12.77750641 8.04909337 18.32092164 4.625 23.25 C3.75875 24.1575 2.8925 25.065 2 26 C1.34 26 0.68 26 0 26 C-0.25523437 26.57234375 -0.51046875 27.1446875 -0.7734375 27.734375 C-2.89733556 31.65749881 -6.02520297 34.69466996 -9 38 C-3.39 38.33 2.22 38.66 8 39 C8.33 40.32 8.66 41.64 9 43 C6.33821779 44.3308911 4.31260604 44.11268993 1.3359375 44.09765625 C0.21445312 44.09443359 -0.90703125 44.09121094 -2.0625 44.08789062 C-3.238125 44.07951172 -4.41375 44.07113281 -5.625 44.0625 C-6.80835938 44.05798828 -7.99171875 44.05347656 -9.2109375 44.04882812 C-12.14067507 44.03701467 -15.07031272 44.02054258 -18 44 C-18.13735278 39.82456182 -17.7374953 38.00624402 -15.125 34.6875 C-14.59132813 33.99011719 -14.05765625 33.29273438 -13.5078125 32.57421875 C-13.01023437 32.05472656 -12.51265625 31.53523438 -12 31 C-11.34 31 -10.68 31 -10 31 C-9.7421875 30.43796875 -9.484375 29.8759375 -9.21875 29.296875 C-7.85830223 26.73295421 -6.27211038 24.54773635 -4.5 22.25 C-3.8915625 21.45078125 -3.283125 20.6515625 -2.65625 19.828125 C-2.1096875 19.22484375 -1.563125 18.6215625 -1 18 C-0.34 18 0.32 18 1 18 C0.88590407 16.54077307 0.75834456 15.08259402 0.625 13.625 C0.55539062 12.81289062 0.48578125 12.00078125 0.4140625 11.1640625 C0.17107412 8.79665809 0.17107412 8.79665809 -2 7 C-5.45769191 6.41657647 -5.45769191 6.41657647 -9 7 C-10.8808206 9.16140195 -10.8808206 9.16140195 -12 12 C-13.5 14.5 -13.5 14.5 -15 17 C-15.99 16.67 -16.98 16.34 -18 16 C-18.62376238 8.0470297 -18.62376238 8.0470297 -16.25 4.0625 C-11.33362219 -0.44417966 -6.47822213 -0.87146262 0 0 Z " fill="#6DA594" transform="translate(344,224)"/>
<path d="M0 0 C4.96886032 5.29592455 4.93111463 10.68728165 4.73046875 17.51953125 C4.71016602 18.83824219 4.71016602 18.83824219 4.68945312 20.18359375 C4.65433498 22.33750677 4.60053569 24.49110129 4.54296875 26.64453125 C2.16796875 27.26953125 2.16796875 27.26953125 -0.45703125 27.64453125 C-1.11703125 26.98453125 -1.77703125 26.32453125 -2.45703125 25.64453125 C-3.30265625 26.13953125 -4.14828125 26.63453125 -5.01953125 27.14453125 C-9.9761855 29.30743492 -13.52549831 29.37851377 -18.58203125 27.45703125 C-22.12103243 25.22592181 -25.70732278 22.88434351 -27.0859375 18.765625 C-27.47928428 16.51733764 -27.58984558 14.42631536 -27.58203125 12.14453125 C-27.58460938 11.39171875 -27.5871875 10.63890625 -27.58984375 9.86328125 C-27.45861542 7.67099625 -27.06034463 5.75133988 -26.45703125 3.64453125 C-25.79703125 3.64453125 -25.13703125 3.64453125 -24.45703125 3.64453125 C-24.20953125 3.04640625 -23.96203125 2.44828125 -23.70703125 1.83203125 C-21.84003418 -1.43521363 -19.76183067 -2.92053561 -16.20703125 -4.10546875 C-9.64784718 -4.70175821 -5.29496389 -3.7605563 0 0 Z M-19.45703125 4.64453125 C-22.12242156 8.64261671 -22.29852829 11.94204778 -21.45703125 16.64453125 C-19.18575791 19.66862489 -19.18575791 19.66862489 -16.45703125 21.64453125 C-16.12703125 21.97453125 -15.79703125 22.30453125 -15.45703125 22.64453125 C-10.21686735 23.42301976 -10.21686735 23.42301976 -5.59375 21.328125 C-2.6706636 18.20970109 -1.54016805 16.25766516 -0.95703125 11.95703125 C-1.39955653 9.02530126 -1.87398657 7.11803856 -3.45703125 4.64453125 C-4.11703125 4.64453125 -4.77703125 4.64453125 -5.45703125 4.64453125 C-5.45703125 3.98453125 -5.45703125 3.32453125 -5.45703125 2.64453125 C-12.93103667 1.21854828 -12.93103667 1.21854828 -19.45703125 4.64453125 Z " fill="#6AA290" transform="translate(432.45703125,240.35546875)"/>
<path d="M0 0 C0.825 0.28875 1.65 0.5775 2.5 0.875 C2.5 3.185 2.5 5.495 2.5 7.875 C0.52 8.865 0.52 8.865 -1.5 9.875 C-1.5 10.535 -1.5 11.195 -1.5 11.875 C-11.66896488 21.04859001 -23.954475 23.3140663 -37.125 23.375 C-38.18082275 23.38128418 -39.23664551 23.38756836 -40.32446289 23.39404297 C-49.01165816 23.24971179 -49.01165816 23.24971179 -52.5 19.875 C-52.75 17.1875 -52.75 17.1875 -52.5 14.875 C-51.84 14.875 -51.18 14.875 -50.5 14.875 C-50.5 14.215 -50.5 13.555 -50.5 12.875 C-49.42363281 12.98199219 -48.34726563 13.08898437 -47.23828125 13.19921875 C-35.46833685 14.22210391 -25.12089703 13.74444309 -14.5 7.875 C-13.51 7.875 -12.52 7.875 -11.5 7.875 C-11.5 7.215 -11.5 6.555 -11.5 5.875 C-8.00300041 2.36912477 -5.04846656 -0.18030238 0 0 Z " fill="#549D87" transform="translate(128.5,270.125)"/>
<path d="M0 0 C4.35017313 3.72871982 6.35810747 8.26250878 7.1875 13.875 C7.30302871 16.2688623 7.36237294 18.66588485 7.375 21.0625 C7.38917969 22.29355469 7.40335937 23.52460938 7.41796875 24.79296875 C7.1875 27.875 7.1875 27.875 5.1875 29.875 C3.8675 29.875 2.5475 29.875 1.1875 29.875 C0.8575 28.885 0.5275 27.895 0.1875 26.875 C-0.59625 27.349375 -1.38 27.82375 -2.1875 28.3125 C-6.44315899 30.84563035 -8.76754234 31.36322171 -13.8125 30.875 C-18.33697864 28.80335227 -22.31936229 26.27019718 -24.8125 21.875 C-25.17578125 18.5625 -25.17578125 18.5625 -25.125 14.875 C-25.12113281 13.658125 -25.11726562 12.44125 -25.11328125 11.1875 C-24.83668833 8.14138572 -24.4148478 6.42854231 -22.8125 3.875 C-22.1525 3.875 -21.4925 3.875 -20.8125 3.875 C-20.8125 3.215 -20.8125 2.555 -20.8125 1.875 C-14.11810673 -2.77388421 -7.51641423 -3.00656569 0 0 Z M-18.6875 9 C-20.29822676 13.11630173 -19.58541534 16.60068507 -18.8125 20.875 C-18.1525 20.875 -17.4925 20.875 -16.8125 20.875 C-16.8125 21.535 -16.8125 22.195 -16.8125 22.875 C-13.1203813 25.33641247 -10.09895195 25.56150207 -5.8125 24.875 C-2.41359858 22.80610348 0.07687011 20.76220463 1.1875 16.875 C1.04618974 12.98896788 0.48438166 10.42126226 -1.375 7 C-7.34121593 1.79868355 -13.68088079 3.32583156 -18.6875 9 Z " fill="#76A897" transform="translate(257.8125,238.125)"/>
<path d="M0 0 C2.86217602 2.25631394 5.22319726 4.42767478 6.23046875 7.953125 C6.23046875 10.593125 6.23046875 13.233125 6.23046875 15.953125 C-1.68953125 15.953125 -9.60953125 15.953125 -17.76953125 15.953125 C-15.43104983 21.87043518 -15.43104983 21.87043518 -11.76953125 23.953125 C-8.34935568 24.35270987 -4.89660084 24.5166598 -1.76953125 22.953125 C0.23006887 22.913133 2.23094117 22.90965701 4.23046875 22.953125 C4.23046875 24.273125 4.23046875 25.593125 4.23046875 26.953125 C-2.32557853 30.21657965 -6.85076425 32.11424115 -14.14453125 29.953125 C-15.01078125 29.623125 -15.87703125 29.293125 -16.76953125 28.953125 C-16.76953125 28.293125 -16.76953125 27.633125 -16.76953125 26.953125 C-17.36765625 26.7675 -17.96578125 26.581875 -18.58203125 26.390625 C-21.76684282 24.29774883 -22.77744533 21.49731601 -23.76953125 17.953125 C-24.3666067 12.38042076 -23.41506114 8.77176872 -20.76953125 3.953125 C-18.58203125 2.515625 -18.58203125 2.515625 -16.76953125 1.953125 C-16.76953125 1.293125 -16.76953125 0.633125 -16.76953125 -0.046875 C-11.05329254 -2.07137621 -5.50981678 -3.25967086 0 0 Z M-15.76953125 6.953125 C-16.42953125 8.603125 -17.08953125 10.253125 -17.76953125 11.953125 C-11.82953125 11.953125 -5.88953125 11.953125 0.23046875 11.953125 C-0.20215516 7.01406523 -0.20215516 7.01406523 -3.01953125 5.140625 C-8.12621803 2.9354648 -11.38486836 3.51649733 -15.76953125 6.953125 Z " fill="#5C9C86" transform="translate(314.76953125,238.046875)"/>
<path d="M0 0 C2.625 2.625 2.625 2.625 4.625 5.625 C4.625 8.595 4.625 11.565 4.625 14.625 C-2.965 14.955 -10.555 15.285 -18.375 15.625 C-17.20582622 21.41707035 -17.20582622 21.41707035 -14.75 22.5 C-11.26780805 22.68327326 -7.86438305 22.739406 -4.375 22.625 C-4.045 22.295 -3.715 21.965 -3.375 21.625 C-1.37541636 21.58419217 0.62545254 21.58245644 2.625 21.625 C2.625 22.945 2.625 24.265 2.625 25.625 C-2.44923208 28.57728048 -6.3532376 30.48525177 -12.375 29.625 C-15.16248786 28.48444059 -17.77321925 27.13876334 -20.375 25.625 C-20.375 24.965 -20.375 24.305 -20.375 23.625 C-21.035 23.625 -21.695 23.625 -22.375 23.625 C-24.14985714 19.80060545 -24.64626874 16.76839266 -24.625 12.5625 C-24.63015625 11.54027344 -24.6353125 10.51804688 -24.640625 9.46484375 C-24.37865182 6.6640422 -23.81574562 5.00909096 -22.375 2.625 C-21.715 2.625 -21.055 2.625 -20.375 2.625 C-20.375 1.965 -20.375 1.305 -20.375 0.625 C-14.67944337 -4.64866355 -6.02439798 -4.89022036 0 0 Z M-15.375 4.3125 C-17.7009351 6.65040961 -17.7009351 6.65040961 -18.375 10.625 C-12.435 10.625 -6.495 10.625 -0.375 10.625 C-1.365 8.315 -2.355 6.005 -3.375 3.625 C-9.57263636 2.32483698 -9.57263636 2.32483698 -15.375 4.3125 Z " fill="#66A28E" transform="translate(488.375,239.375)"/>
<path d="M0 0 C0.99 0.66 1.98 1.32 3 2 C3.99 1.34 4.98 0.68 6 0 C6.495 1.98 6.495 1.98 7 4 C3.93109813 5.53445094 1.29905734 4.54984289 -2 4 C-2.33 5.32 -2.66 6.64 -3 8 C-4.65 8 -6.3 8 -8 8 C-8 8.66 -8 9.32 -8 10 C-24.05470405 15.12384172 -41.43723082 12.93311376 -58 12 C-58.38133299 10.0085944 -58.71325582 8.00720923 -59 6 C-57.06044514 4.06044514 -53.42946791 4.67893846 -50.7734375 4.5703125 C-49.24998174 4.49646947 -47.72654483 4.42223679 -46.203125 4.34765625 C-43.81233964 4.23567908 -41.42154492 4.12696764 -39.03027344 4.02587891 C-29.49433479 3.61432787 -20.42011175 2.75338369 -11.09912109 0.6472168 C-7.21274289 -0.16440985 -3.94687578 -0.37950729 0 0 Z " fill="#529C86" transform="translate(95,270)"/>
<path d="M0 0 C1.98 0 3.96 0 6 0 C6.99 5.61 7.98 11.22 9 17 C8.34 17 7.68 17 7 17 C6.67 20.96 6.34 24.92 6 29 C7.32 29 8.64 29 10 29 C10.33 30.32 10.66 31.64 11 33 C9.02 32.67 7.04 32.34 5 32 C4.67 33.32 4.34 34.64 4 36 C-3.50769231 36.36923077 -3.50769231 36.36923077 -6 34.5 C-6.33 34.005 -6.66 33.51 -7 33 C-6.67 32.34 -6.34 31.68 -6 31 C-5.34 31 -4.68 31 -4 31 C-4 29.02 -4 27.04 -4 25 C-4.66 25 -5.32 25 -6 25 C-7.81963391 19.54109828 -8.08846995 13.65266977 -5.8828125 8.27734375 C-4.66946432 6.11456775 -3.40986319 4.0392664 -2 2 C-1.34 2 -0.68 2 0 2 C0 1.34 0 0.68 0 0 Z " fill="#44957D" transform="translate(33,169)"/>
<path d="M0 0 C2 3 2 3 2 5 C3.13888672 5.07154297 3.13888672 5.07154297 4.30078125 5.14453125 C7 6 7 6 8.73046875 8.51171875 C9.21128906 9.55972656 9.69210938 10.60773438 10.1875 11.6875 C10.67605469 12.72261719 11.16460937 13.75773438 11.66796875 14.82421875 C14.21354883 20.8932997 15.42404939 26.16265572 15.8125 32.6875 C15.87630859 33.44611328 15.94011719 34.20472656 16.00585938 34.98632812 C16.19580997 38.01751155 16.34226665 40.35990133 14.88671875 43.08203125 C12.0669783 44.45395466 9.96510361 43.72480311 7 43 C6.89042969 41.94941406 6.78085938 40.89882812 6.66796875 39.81640625 C5.98643202 27.5611929 5.98643202 27.5611929 1 17 C0.95907063 14.66702567 0.95758277 12.33294775 1 10 C0.01 9.67 -0.98 9.34 -2 9 C-2.6875 6.1875 -2.6875 6.1875 -3 3 C-1.5625 1.125 -1.5625 1.125 0 0 Z " fill="#4C9A82" transform="translate(131,202)"/>
<path d="M0 0 C1.32 0 2.64 0 4 0 C5.20272819 2.40545638 5.10071472 3.94996953 5.0625 6.625 C5.05347656 7.44226563 5.04445313 8.25953125 5.03515625 9.1015625 C5.02355469 9.72804687 5.01195312 10.35453125 5 11 C7.64 11 10.28 11 13 11 C13 12.65 13 14.3 13 16 C10.36 16 7.72 16 5 16 C5.11391632 18.60508636 5.24065548 21.20845546 5.375 23.8125 C5.4059375 24.55048828 5.436875 25.28847656 5.46875 26.04882812 C5.67346148 29.81893115 5.86433827 31.79650741 8 35 C11.06556598 35.73343428 11.06556598 35.73343428 14 36 C13.67 37.65 13.34 39.3 13 41 C6.375 41.125 6.375 41.125 3 40 C3 39.34 3 38.68 3 38 C2.34 38 1.68 38 1 38 C-0.66674321 35.08175756 -1.2432008 33.02405621 -1.1953125 29.671875 C-1.18564453 28.47304687 -1.18564453 28.47304687 -1.17578125 27.25 C-1.15902344 26.425 -1.14226562 25.6 -1.125 24.75 C-1.11597656 23.90953125 -1.10695313 23.0690625 -1.09765625 22.203125 C-1.07415817 20.13529396 -1.03828908 18.06761005 -1 16 C-2.65 16 -4.3 16 -6 16 C-6 14.35 -6 12.7 -6 11 C-4.35 11 -2.7 11 -1 11 C-1.01160156 10.28972656 -1.02320313 9.57945312 -1.03515625 8.84765625 C-1.04869141 7.46900391 -1.04869141 7.46900391 -1.0625 6.0625 C-1.07410156 5.14597656 -1.08570313 4.22945312 -1.09765625 3.28515625 C-1 1 -1 1 0 0 Z " fill="#549580" transform="translate(446,227)"/>
<path d="M0 0 C0 0.66 0 1.32 0 2 C-1.2065625 2.37125 -1.2065625 2.37125 -2.4375 2.75 C-5.171081 3.72238859 -5.171081 3.72238859 -5.8125 6.125 C-5.9053125 7.053125 -5.9053125 7.053125 -6 8 C-5.01 8 -4.02 8 -3 8 C-3 7.34 -3 6.68 -3 6 C-2.113125 5.855625 -1.22625 5.71125 -0.3125 5.5625 C2.47117646 5.08980022 5.23483757 4.56929815 8 4 C8 3.34 8 2.68 8 2 C8.99 2.33 9.98 2.66 11 3 C4.18420833 10.71039108 -8.10426667 13.67406463 -17.5625 16.75 C-18.70396484 17.13542969 -19.84542969 17.52085937 -21.02148438 17.91796875 C-27.95651758 20.20720301 -34.77516583 21.92370858 -42 23 C-42 22.34 -42 21.68 -42 21 C-40.35 20.67 -38.7 20.34 -37 20 C-36.67 19.01 -36.34 18.02 -36 17 C-33.36 17 -30.72 17 -28 17 C-28.33 16.01 -28.66 15.02 -29 14 C-29.66 14.66 -30.32 15.32 -31 16 C-32.65 14.68 -34.3 13.36 -36 12 C-35.39115967 11.8141333 -34.78231934 11.6282666 -34.1550293 11.43676758 C-19.21726731 6.9829761 -19.21726731 6.9829761 -4.92578125 0.84765625 C-3 0 -3 0 0 0 Z " fill="#4D9A83" transform="translate(129,257)"/>
<path d="M0 0 C1.32 0.33 2.64 0.66 4 1 C4 4.3 4 7.6 4 11 C6.64 11 9.28 11 12 11 C12 12.65 12 14.3 12 16 C9.36 16 6.72 16 4 16 C4.08695958 18.60578866 4.19381408 21.2081279 4.3125 23.8125 C4.33505859 24.55048828 4.35761719 25.28847656 4.38085938 26.04882812 C4.55867398 30.23898168 4.55867398 30.23898168 6.34375 33.9375 C8.74487612 35.47784506 11.27366468 36.21239202 14 37 C13.67 38.32 13.34 39.64 13 41 C8.03317768 41.29216602 4.89650666 41.24708889 1 38 C-2.09845805 33.06624425 -2.38577206 29.24779215 -2.1875 23.625 C-2.17396484 22.88894531 -2.16042969 22.15289062 -2.14648438 21.39453125 C-2.11144869 19.59603257 -2.05765288 17.79791578 -2 16 C-3.32 16 -4.64 16 -6 16 C-6.33 15.01 -6.66 14.02 -7 13 C-6.67 12.34 -6.34 11.68 -6 11 C-4.68 11 -3.36 11 -2 11 C-2.02320313 10.37351563 -2.04640625 9.74703125 -2.0703125 9.1015625 C-2.09738281 7.87566406 -2.09738281 7.87566406 -2.125 6.625 C-2.14820313 5.81289062 -2.17140625 5.00078125 -2.1953125 4.1640625 C-2 2 -2 2 0 0 Z " fill="#4B927B" transform="translate(274,227)"/>
<path d="M0 0 C1.65 0 3.3 0 5 0 C5.33 12.21 5.66 24.42 6 37 C7.65 37.66 9.3 38.32 11 39 C11 40.65 11 42.3 11 44 C9.5619089 43.99397027 8.12396042 43.94373016 6.6875 43.875 C5.88699219 43.85179687 5.08648437 43.82859375 4.26171875 43.8046875 C2 43 2 43 0.37915039 40.47631836 C-1.23441639 36.40912462 -1.39862665 32.87594071 -1.328125 28.57421875 C-1.32625183 27.78602249 -1.32437866 26.99782623 -1.32244873 26.18574524 C-1.31575942 24.53093188 -1.3019075 22.87613349 -1.28125 21.22143555 C-1.24988376 18.67807463 -1.24025431 16.13533272 -1.234375 13.59179688 C-1.2252127 11.98176321 -1.21483941 10.37173587 -1.203125 8.76171875 C-1.19887512 7.99824631 -1.19462524 7.23477386 -1.19024658 6.44816589 C-1.11721514 1.11721514 -1.11721514 1.11721514 0 0 Z " fill="#88BAAA" transform="translate(219,224)"/>
<path d="M0 0 C1.65 0 3.3 0 5 0 C5.02505615 1.03930664 5.0501123 2.07861328 5.07592773 3.14941406 C5.17020926 7.01102703 5.27037908 10.87246883 5.37231445 14.73388672 C5.41558489 16.40409334 5.45726549 18.07434194 5.49731445 19.74462891 C5.55520851 22.14758955 5.6188474 24.55034041 5.68359375 26.953125 C5.70030624 27.69806213 5.71701874 28.44299927 5.73423767 29.21051025 C5.83061695 32.59509934 5.96070174 35.7600524 7 39 C8.65 39 10.3 39 12 39 C11.505 41.475 11.505 41.475 11 44 C7.15597842 44.44697925 5.49682013 44.36304169 2.32348633 42.04418945 C-0.82808718 37.91505526 -0.64579111 35.02972787 -0.48828125 29.98046875 C-0.48120651 29.12189774 -0.47413177 28.26332672 -0.46684265 27.3787384 C-0.43894402 24.64742397 -0.37621691 21.91819042 -0.3125 19.1875 C-0.28741114 17.3314099 -0.26459899 15.47528754 -0.24414062 13.61914062 C-0.18913253 9.07863028 -0.10289364 4.53966743 0 0 Z " fill="#589984" transform="translate(391,224)"/>
<path d="M0 0 C0.75 2.75 0.75 2.75 1 6 C-0.4375 7.9375 -0.4375 7.9375 -3 10 C-3.65355469 10.59425781 -4.30710937 11.18851563 -4.98046875 11.80078125 C-10.7006513 17 -10.7006513 17 -13 17 C-13.268125 17.5775 -13.53625 18.155 -13.8125 18.75 C-15.01719859 21.0325868 -16.40798115 22.9737942 -18 25 C-18.125 22.125 -18.125 22.125 -18 19 C-17.34 18.34 -16.68 17.68 -16 17 C-15.34 17.33 -14.68 17.66 -14 18 C-13.34 16.68 -12.68 15.36 -12 14 C-13.83700789 13.22757731 -13.83700789 13.22757731 -16 13 C-17.64594139 14.39588754 -17.64594139 14.39588754 -19 16 C-19.66 16 -20.32 16 -21 16 C-21.33 16.99 -21.66 17.98 -22 19 C-22.99 18.67 -23.98 18.34 -25 18 C-23.58474822 16.41540185 -22.1677358 14.83237609 -20.75 13.25 C-19.96109375 12.36828125 -19.1721875 11.4865625 -18.359375 10.578125 C-14.08132147 5.90343075 -14.08132147 5.90343075 -12 4 C-11.34 4 -10.68 4 -10 4 C-10 3.34 -10 2.68 -10 2 C-6.3558226 -0.4294516 -4.28758728 -0.16179575 0 0 Z " fill="#4A9A80" transform="translate(32,222)"/>
<path d="M0 0 C3.3125 0.125 3.3125 0.125 6 1 C3.375 5.875 3.375 5.875 0 7 C-0.73865409 8.83428392 -0.73865409 8.83428392 -1.0625 11.0625 C-1.21589844 11.866875 -1.36929687 12.67125 -1.52734375 13.5 C-1.68332031 14.325 -1.83929688 15.15 -2 16 C-2.36337134 17.5236536 -2.73744869 19.04481656 -3.125 20.5625 C-3.41375 21.696875 -3.7025 22.83125 -4 24 C-4.99 23.67 -5.98 23.34 -7 23 C-8.65 24.65 -10.3 26.3 -12 28 C-14.14568911 23.70862179 -13.67325326 18.11394547 -12.24609375 13.6328125 C-10.333443 9.53748971 -9.06888415 7.98694537 -5 6 C-4.21625 4.948125 -3.4325 3.89625 -2.625 2.8125 C-1.325625 1.4203125 -1.325625 1.4203125 0 0 Z " fill="#5C9F8C" transform="translate(15,234)"/>
<path d="M0 0 C2.86217602 2.25631394 5.22319726 4.42767478 6.23046875 7.953125 C6.37563584 10.64390062 6.32045275 13.25360489 6.23046875 15.953125 C5.90046875 15.953125 5.57046875 15.953125 5.23046875 15.953125 C4.90046875 13.643125 4.57046875 11.333125 4.23046875 8.953125 C2.91046875 9.943125 1.59046875 10.933125 0.23046875 11.953125 C-0.09953125 10.98375 -0.42953125 10.014375 -0.76953125 9.015625 C-2.37799206 5.89330356 -2.37799206 5.89330356 -4.609375 5.26171875 C-7.62992804 4.81735434 -10.0684713 4.75838613 -13.01953125 5.578125 C-15.35622109 7.41409559 -17.0130248 9.56929482 -18.76953125 11.953125 C-18.76953125 10.633125 -18.76953125 9.313125 -18.76953125 7.953125 C-19.75953125 8.448125 -19.75953125 8.448125 -20.76953125 8.953125 C-21.23704913 11.30911735 -21.23704913 11.30911735 -21.39453125 14.015625 C-21.46929687 14.93472656 -21.5440625 15.85382813 -21.62109375 16.80078125 C-21.67007812 17.51105469 -21.7190625 18.22132813 -21.76953125 18.953125 C-22.42953125 18.623125 -23.08953125 18.293125 -23.76953125 17.953125 C-24.11552855 12.30183577 -23.4510788 8.83737232 -20.76953125 3.953125 C-18.58203125 2.515625 -18.58203125 2.515625 -16.76953125 1.953125 C-16.76953125 1.293125 -16.76953125 0.633125 -16.76953125 -0.046875 C-11.05329254 -2.07137621 -5.50981678 -3.25967086 0 0 Z " fill="#74A896" transform="translate(314.76953125,238.046875)"/>
<path d="M0 0 C0.66 0.33 1.32 0.66 2 1 C1.98839844 1.63808594 1.97679687 2.27617187 1.96484375 2.93359375 C1.95582031 3.75988281 1.94679687 4.58617187 1.9375 5.4375 C1.92589844 6.26121094 1.91429687 7.08492187 1.90234375 7.93359375 C1.76732652 9.99163938 1.76732652 9.99163938 3 11 C3.50816442 15.31939753 3.37077794 17.42065947 1 21.125 C-2.05924143 24.3498414 -5.77355305 27.52116369 -10 29 C-12.24609375 28.125 -12.24609375 28.125 -14 27 C-14 24 -14 24 -13 21 C-12.34 21 -11.68 21 -11 21 C-11 20.34 -11 19.68 -11 19 C-10.34 19 -9.68 19 -9 19 C-8.731875 18.443125 -8.46375 17.88625 -8.1875 17.3125 C-4.58181818 10.29090909 -4.58181818 10.29090909 -2 9 C-1.31270746 6.88153715 -1.31270746 6.88153715 -0.875 4.4375 C-0.62363281 3.19806641 -0.62363281 3.19806641 -0.3671875 1.93359375 C-0.24601563 1.29550781 -0.12484375 0.65742188 0 0 Z " fill="#4B9880" transform="translate(173,214)"/>
<path d="M0 0 C0.33 0 0.66 0 1 0 C1 3.3 1 6.6 1 10 C1.66 10 2.32 10 3 10 C2.67 9.01 2.34 8.02 2 7 C2.66 7 3.32 7 4 7 C4 5.35 4 3.7 4 2 C4.33 2 4.66 2 5 2 C5 7.61 5 13.22 5 19 C8.63 19 12.26 19 16 19 C15.67 20.65 15.34 22.3 15 24 C11.7 24 8.4 24 5 24 C4.67 27.96 4.34 31.92 4 36 C3.01 36 2.02 36 1 36 C-0.46739522 24.05121032 -0.0947251 12.01405773 0 0 Z " fill="#49927C" transform="translate(187,229)"/>
<path d="M0 0 C0.99 -0.66 1.98 -1.32 3 -2 C3.495 -0.02 3.495 -0.02 4 2 C0.93109813 3.53445094 -1.70094266 2.54984289 -5 2 C-5.33 3.32 -5.66 4.64 -6 6 C-7.65 6 -9.3 6 -11 6 C-11 6.66 -11 7.32 -11 8 C-17.55276707 10.28584898 -24.10401439 10.60594368 -31 11 C-31 10.34 -31 9.68 -31 9 C-30.38511719 8.97421875 -29.77023438 8.9484375 -29.13671875 8.921875 C-24.00745409 8.7185352 -24.00745409 8.7185352 -19.9375 5.9375 C-19.628125 5.298125 -19.31875 4.65875 -19 4 C-21.31 3.34 -23.62 2.68 -26 2 C-19.09663447 -1.83878737 -6.84510383 -4.56340255 0 0 Z " fill="#5EA28C" transform="translate(98,272)"/>
<path d="M0 0 C0.9075 0.103125 1.815 0.20625 2.75 0.3125 C1.76 0.8075 1.76 0.8075 0.75 1.3125 C0.75 2.6325 0.75 3.9525 0.75 5.3125 C6.69 5.3125 12.63 5.3125 18.75 5.3125 C19.08 6.6325 19.41 7.9525 19.75 9.3125 C17.08821779 10.6433911 15.06260604 10.42518993 12.0859375 10.41015625 C10.96445312 10.40693359 9.84296875 10.40371094 8.6875 10.40039062 C7.511875 10.39201172 6.33625 10.38363281 5.125 10.375 C3.94164062 10.37048828 2.75828125 10.36597656 1.5390625 10.36132812 C-1.39067507 10.34951467 -4.32031272 10.33304258 -7.25 10.3125 C-7.39898895 6.90294529 -7.38131396 5.53977416 -5.625 2.5 C-3.25 0.3125 -3.25 0.3125 0 0 Z " fill="#499079" transform="translate(333.25,257.6875)"/>
<path d="M0 0 C1.32 0.33 2.64 0.66 4 1 C4 4.3 4 7.6 4 11 C6.64 11 9.28 11 12 11 C12 12.65 12 14.3 12 16 C9.36 16 6.72 16 4 16 C3.34 14.68 2.68 13.36 2 12 C1.67 13.65 1.34 15.3 1 17 C0.34 17 -0.32 17 -1 17 C-1 21.95 -1 26.9 -1 32 C-1.33 32 -1.66 32 -2 32 C-2 26.72 -2 21.44 -2 16 C-3.32 16 -4.64 16 -6 16 C-6.33 15.01 -6.66 14.02 -7 13 C-6.67 12.34 -6.34 11.68 -6 11 C-4.68 11 -3.36 11 -2 11 C-2.02320313 10.37351563 -2.04640625 9.74703125 -2.0703125 9.1015625 C-2.09738281 7.87566406 -2.09738281 7.87566406 -2.125 6.625 C-2.14820313 5.81289062 -2.17140625 5.00078125 -2.1953125 4.1640625 C-2 2 -2 2 0 0 Z " fill="#78AE9F" transform="translate(274,227)"/>
<path d="M0 0 C-1.65 0.33 -3.3 0.66 -5 1 C-4.67 1.99 -4.34 2.98 -4 4 C-3.01 3.67 -2.02 3.34 -1 3 C-1 2.34 -1 1.68 -1 1 C-0.1028125 1.495 -0.1028125 1.495 0.8125 2 C3.05386471 3.20787988 3.05386471 3.20787988 6 3 C7.67099977 3.31088368 9.33871537 3.64080332 11 4 C7.32808964 6.44794024 3.6668915 7.62124288 -0.5 9 C-1.30356934 9.2676416 -2.10713867 9.5352832 -2.93505859 9.81103516 C-8.88447309 11.74480389 -14.78365066 13.20584083 -21 14 C-21 13.34 -21 12.68 -21 12 C-19.35 11.67 -17.7 11.34 -16 11 C-15.67 10.01 -15.34 9.02 -15 8 C-12.36 8 -9.72 8 -7 8 C-7.33 7.01 -7.66 6.02 -8 5 C-8.66 5.66 -9.32 6.32 -10 7 C-11.65 5.68 -13.3 4.36 -15 3 C-13.06643218 2.30151736 -11.12797702 1.61655186 -9.1875 0.9375 C-8.10855469 0.55464844 -7.02960938 0.17179687 -5.91796875 -0.22265625 C-3 -1 -3 -1 0 0 Z " fill="#61A18E" transform="translate(108,266)"/>
<path d="M0 0 C1.423125 0.2165625 1.423125 0.2165625 2.875 0.4375 C7.56740347 1.11197278 12.28134412 1.55376896 17 2 C17 2.33 17 2.66 17 3 C15.35 3.33 13.7 3.66 12 4 C12 5.98 12 7.96 12 10 C12.55349121 9.99476318 13.10698242 9.98952637 13.67724609 9.98413086 C33.17863269 9.82381769 33.17863269 9.82381769 42 11 C42 11.33 42 11.66 42 12 C37.965665 12.07539006 33.93161493 12.12917203 29.89672852 12.16479492 C28.53044474 12.17967888 27.16420692 12.19999286 25.7980957 12.22631836 C16.41956597 12.40223047 8.03465296 11.56549051 -1 9 C-0.34 8.67 0.32 8.34 1 8 C1.83557723 5.06991681 1.83557723 5.06991681 2 2 C1.34 1.34 0.68 0.68 0 0 Z " fill="#6BA896" transform="translate(25,272)"/>
<path d="M0 0 C0.89203125 0.01804688 1.7840625 0.03609375 2.703125 0.0546875 C3.71632813 0.08949219 3.71632813 0.08949219 4.75 0.125 C5.08 1.445 5.41 2.765 5.75 4.125 C5.09 4.125 4.43 4.125 3.75 4.125 C3.75 4.785 3.75 5.445 3.75 6.125 C2.491875 6.186875 1.23375 6.24875 -0.0625 6.3125 C-3.61806747 6.72670743 -3.61806747 6.72670743 -6.0625 9.375 C-6.454375 10.2825 -6.84625 11.19 -7.25 12.125 C-8.75 14.625 -8.75 14.625 -10.25 17.125 C-11.24 16.795 -12.23 16.465 -13.25 16.125 C-13.87376238 8.1720297 -13.87376238 8.1720297 -11.5 4.1875 C-7.74985948 0.74987119 -5.07688566 -0.13360225 0 0 Z " fill="#71A796" transform="translate(339.25,223.875)"/>
<path d="M0 0 C3 3.75 3 3.75 3 6 C6.99318374 7.33106125 10.83744513 7.13647721 15 7 C15.33 6.67 15.66 6.34 16 6 C17.99958364 5.95919217 20.00045254 5.95745644 22 6 C22 7.32 22 8.64 22 10 C16.92576792 12.95228048 13.0217624 14.86025177 7 14 C4.21251214 12.85944059 1.60178075 11.51376334 -1 10 C-1 9.34 -1 8.68 -1 8 C-1.66 8 -2.32 8 -3 8 C-3 7.01 -3 6.02 -3 5 C-1.68 5.33 -0.36 5.66 1 6 C0.67 4.02 0.34 2.04 0 0 Z " fill="#6DAB96" transform="translate(469,255)"/>
<path d="M0 0 C0.26554687 0.55816406 0.53109375 1.11632812 0.8046875 1.69140625 C2.56397351 5.08924295 4.68251628 8.25260294 6.7578125 11.46484375 C8.11234738 14.22928757 8.24979992 15.96438791 8 19 C6.3125 19.6875 6.3125 19.6875 4 20 C0.81158886 18.63353808 -0.65554614 17.67168503 -2.25 14.5625 C-2.88801267 12.38262338 -3.50728092 10.21723587 -4 8 C-4.66 8 -5.32 8 -6 8 C-5.67 6.02 -5.34 4.04 -5 2 C-4.01 1.67 -3.02 1.34 -2 1 C-1.67 1.33 -1.34 1.66 -1 2 C-0.67 1.34 -0.34 0.68 0 0 Z " fill="#49987F" transform="translate(48,252)"/>
<path d="M0 0 C-0.33 0.66 -0.66 1.32 -1 2 C-0.505 2.45375 -0.01 2.9075 0.5 3.375 C2 5 2 5 2 7 C2.66 7.33 3.32 7.66 4 8 C-2.6 8 -9.2 8 -16 8 C-16 7.01 -16 6.02 -16 5 C-17.65 5 -19.3 5 -21 5 C-20.67 4.01 -20.34 3.02 -20 2 C-13.82228252 -0.68658877 -6.58386134 -0.22151309 0 0 Z " fill="#4B977F" transform="translate(97,185)"/>
<path d="M0 0 C0.99 0.66 1.98 1.32 3 2 C2.67 2.66 2.34 3.32 2 4 C2.99 4.33 3.98 4.66 5 5 C5.4125 4.525625 5.825 4.05125 6.25 3.5625 C8.182185 1.83733482 9.48192275 1.43415125 12 1 C11.1875 2.9375 11.1875 2.9375 10 5 C9.01 5.33 8.02 5.66 7 6 C7 6.66 7 7.32 7 8 C3.53846154 11 3.53846154 11 1 11 C1 11.66 1 12.32 1 13 C-4.41176471 17 -4.41176471 17 -7 17 C-7 15.35 -7 13.7 -7 12 C-5.68 11.67 -4.36 11.34 -3 11 C-3 10.01 -3 9.02 -3 8 C-6.68754757 8.49831724 -8.60490662 9.10067643 -11 12 C-11.66 11.34 -12.32 10.68 -13 10 C-8.71 6.7 -4.42 3.4 0 0 Z " fill="#60A28D" transform="translate(158,237)"/>
<path d="M0 0 C0.99 0.66 1.98 1.32 3 2 C2.67 3.98 2.34 5.96 2 8 C2.99 7.67 3.98 7.34 5 7 C6.32 7 7.64 7 9 7 C9.33 5.68 9.66 4.36 10 3 C10.66 3 11.32 3 12 3 C10.17719837 10.59500678 7.16117121 15.50624445 0.78125 20.1171875 C-1 21 -1 21 -5 21 C-5.66 22.32 -6.32 23.64 -7 25 C-7.33 22.69 -7.66 20.38 -8 18 C-6.35 18 -4.7 18 -3 18 C-2.67 16.35 -2.34 14.7 -2 13 C-1.01 13.33 -0.02 13.66 1 14 C1 14.66 1 15.32 1 16 C1.99 16 2.98 16 4 16 C2.36587557 14.29159719 1.13093906 13.06546953 -1 12 C-0.67 8.04 -0.34 4.08 0 0 Z " fill="#5FA590" transform="translate(40,186)"/>
<path d="M0 0 C0.66 0 1.32 0 2 0 C2 1.32 2 2.64 2 4 C5.27184808 3.91915297 8.54182779 3.80631126 11.8125 3.6875 C13.2056543 3.65366211 13.2056543 3.65366211 14.62695312 3.61914062 C15.51962891 3.58369141 16.41230469 3.54824219 17.33203125 3.51171875 C18.15421143 3.48553467 18.9763916 3.45935059 19.82348633 3.43237305 C22.42606532 2.91536044 23.33910717 2.01797305 25 0 C26 1 26 1 26 8 C18.41 8 10.82 8 3 8 C3 7.34 3 6.68 3 6 C0.48916886 7.25541557 0.12874554 8.50063488 -1 11 C-1.02688151 9.35425434 -1.04634123 7.70838587 -1.0625 6.0625 C-1.07410156 5.14597656 -1.08570313 4.22945312 -1.09765625 3.28515625 C-1 1 -1 1 0 0 Z " fill="#4A9179" transform="translate(294,246)"/>
<path d="M0 0 C0.9583374 0.04713135 1.9166748 0.0942627 2.90405273 0.14282227 C3.93852539 0.19116211 4.97299805 0.23950195 6.03881836 0.28930664 C7.12743164 0.34538086 8.21604492 0.40145508 9.33764648 0.45922852 C10.43012695 0.51143555 11.52260742 0.56364258 12.64819336 0.61743164 C15.35743724 0.74756999 18.06635442 0.88254906 20.77514648 1.02172852 C20.77514648 1.68172852 20.77514648 2.34172852 20.77514648 3.02172852 C21.76514648 3.02172852 22.75514648 3.02172852 23.77514648 3.02172852 C23.77514648 3.68172852 23.77514648 4.34172852 23.77514648 5.02172852 C16.18514648 5.02172852 8.59514648 5.02172852 0.77514648 5.02172852 C1.10514648 7.33172852 1.43514648 9.64172852 1.77514648 12.02172852 C0.12514648 11.69172852 -1.52485352 11.36172852 -3.22485352 11.02172852 C-3.25173502 9.37598286 -3.27119475 7.73011438 -3.28735352 6.08422852 C-3.29895508 5.16770508 -3.31055664 4.25118164 -3.32250977 3.30688477 C-3.19216567 0.25683288 -3.0582727 0.02986791 0 0 Z " fill="#48917A" transform="translate(468.224853515625,248.978271484375)"/>
<path d="M0 0 C0.99 0 1.98 0 3 0 C3.2295711 3.36704285 3.33943529 5.41370268 1.625 8.375 C1.08875 8.91125 0.5525 9.4475 0 10 C-0.66 10 -1.32 10 -2 10 C-2 10.66 -2 11.32 -2 12 C-5.04236093 12.86117873 -7.90293121 13.25109534 -11.0625 13.375 C-11.91972656 13.42398438 -12.77695312 13.47296875 -13.66015625 13.5234375 C-16 13 -16 13 -17.80859375 10.4765625 C-18.20175781 9.65929687 -18.59492188 8.84203125 -19 8 C-17.96359375 7.92523438 -16.9271875 7.85046875 -15.859375 7.7734375 C-14.48944359 7.64207421 -13.11965829 7.50918094 -11.75 7.375 C-11.06808594 7.32988281 -10.38617188 7.28476563 -9.68359375 7.23828125 C-7.36497357 7.04650571 -7.36497357 7.04650571 -4 6 C-1.69076437 3.01633933 -1.69076437 3.01633933 0 0 Z " fill="#50937D" transform="translate(383,240)"/>
<path d="M0 0 C1.32 0.33 2.64 0.66 4 1 C4.3690205 10.41002278 4.3690205 10.41002278 2 15 C1.34 15 0.68 15 0 15 C0 15.66 0 16.32 0 17 C-6.75 20 -6.75 20 -9 20 C-7.62073246 13.60521415 -7.62073246 13.60521415 -4.5 10.5625 C-1.17536535 7.15474949 -0.86234538 4.62530705 0 0 Z " fill="#629D8B" transform="translate(211,233)"/>
<path d="M0 0 C2.475 0.99 2.475 0.99 5 2 C5 2.66 5 3.32 5 4 C5.66 4 6.32 4 7 4 C9.68902652 10.02341941 10.27170568 13.525862 9 20 C8.67 20 8.34 20 8 20 C8 18.35 8 16.7 8 15 C7.01 15 6.02 15 5 15 C4.7525 15.78375 4.505 16.5675 4.25 17.375 C2.84610901 20.32317108 1.99324263 20.9024777 -1 22 C-0.01 20.6696875 -0.01 20.6696875 1 19.3125 C3.46814216 15.22463955 3.31726463 13.28430533 2.6875 8.75 C2.3471875 7.88375 2.3471875 7.88375 2 7 C-1.16245541 5.9458482 -3.86948218 5.68724328 -7.1875 5.4375 C-8.27417969 5.35371094 -9.36085938 5.26992187 -10.48046875 5.18359375 C-11.31191406 5.12300781 -12.14335937 5.06242188 -13 5 C-13 4.67 -13 4.34 -13 4 C-8.71 4 -4.42 4 0 4 C0 2.68 0 1.36 0 0 Z " fill="#6CA492" transform="translate(378,225)"/>
<path d="M0 0 C0.33 0 0.66 0 1 0 C1.33 4.95 1.66 9.9 2 15 C2.66 15 3.32 15 4 15 C4.33 10.71 4.66 6.42 5 2 C5.33 2 5.66 2 6 2 C6.04898437 2.97582031 6.09796875 3.95164063 6.1484375 4.95703125 C6.22320312 6.22933594 6.29796875 7.50164062 6.375 8.8125 C6.47941406 10.70935547 6.47941406 10.70935547 6.5859375 12.64453125 C6.76102939 16.12755234 6.76102939 16.12755234 9 19 C12.06556598 19.73343428 12.06556598 19.73343428 15 20 C14.67 21.65 14.34 23.3 14 25 C7.375 25.125 7.375 25.125 4 24 C4 23.34 4 22.68 4 22 C3.34 22 2.68 22 2 22 C0.33325679 19.08175756 -0.2432008 17.02405621 -0.1953125 13.671875 C-0.18886719 12.87265625 -0.18242187 12.0734375 -0.17578125 11.25 C-0.15902344 10.425 -0.14226562 9.6 -0.125 8.75 C-0.11597656 7.90953125 -0.10695313 7.0690625 -0.09765625 6.203125 C-0.07415817 4.13529396 -0.03828908 2.06761005 0 0 Z " fill="#79AD9C" transform="translate(445,243)"/>
<path d="M0 0 C0.99 0.33 1.98 0.66 3 1 C3.86133501 4.44534004 3.93688374 6.60379646 3 10 C3.33 10.66 3.66 11.32 4 12 C4.08400529 13.59447464 4.10727467 15.19240545 4.09765625 16.7890625 C4.09282227 18.20058594 4.09282227 18.20058594 4.08789062 19.640625 C4.07951172 20.62546875 4.07113281 21.6103125 4.0625 22.625 C4.05798828 23.61757812 4.05347656 24.61015625 4.04882812 25.6328125 C4.03702145 28.0886016 4.020554 30.54427104 4 33 C2 32 2 32 1 31 C1 32.65 1 34.3 1 36 C0.67 36 0.34 36 0 36 C0 24.12 0 12.24 0 0 Z " fill="#4B8F7B" transform="translate(219,226)"/>
<path d="M0 0 C0.74886475 0.00523682 1.49772949 0.01047363 2.26928711 0.01586914 C3.07817383 0.0190918 3.88706055 0.02231445 4.72045898 0.02563477 C5.5705957 0.03401367 6.42073242 0.04239258 7.29663086 0.05102539 C8.15063477 0.05553711 9.00463867 0.06004883 9.88452148 0.06469727 C12.00108749 0.07652166 14.11761771 0.0944577 16.23413086 0.11352539 C16.23413086 0.44352539 16.23413086 0.77352539 16.23413086 1.11352539 C15.00436523 1.2044043 15.00436523 1.2044043 13.74975586 1.29711914 C12.13327148 1.42280273 12.13327148 1.42280273 10.48413086 1.55102539 C9.41678711 1.63223633 8.34944336 1.71344727 7.24975586 1.79711914 C4.79733124 2.05443312 2.59491795 2.43164757 0.23413086 3.11352539 C-0.09586914 2.45352539 -0.42586914 1.79352539 -0.76586914 1.11352539 C-0.76586914 14.31352539 -0.76586914 27.51352539 -0.76586914 41.11352539 C0.22413086 41.44352539 1.21413086 41.77352539 2.23413086 42.11352539 C2.23413086 42.77352539 2.23413086 43.43352539 2.23413086 44.11352539 C0.58413086 43.78352539 -1.06586914 43.45352539 -2.76586914 43.11352539 C-2.79051488 37.15039373 -2.80870314 31.18729144 -2.82080078 25.22412109 C-2.82584192 23.19384241 -2.83267471 21.16356737 -2.84130859 19.13330078 C-2.85338381 16.22175192 -2.85909948 13.31025089 -2.86352539 10.39868164 C-2.86868668 9.4851442 -2.87384796 8.57160675 -2.87916565 7.63038635 C-2.87936082 5.45777112 -2.82798719 3.28525243 -2.76586914 1.11352539 C-1.76586914 0.11352539 -1.76586914 0.11352539 0 0 Z " fill="#71A495" transform="translate(361.765869140625,223.886474609375)"/>
<path d="M0 0 C0.33 0 0.66 0 1 0 C1.33 1.65 1.66 3.3 2 5 C4.97 5.495 4.97 5.495 8 6 C7.4225 6.226875 6.845 6.45375 6.25 6.6875 C3.4336339 8.33038023 1.91922886 10.39533227 0 13 C1.32 14.32 2.64 15.64 4 17 C3 19 3 19 1 20 C1.33 20.99 1.66 21.98 2 23 C2.66 23 3.32 23 4 23 C3.67 24.32 3.34 25.64 3 27 C1.99126984 25.73608512 0.99328178 24.46359117 0 23.1875 C-0.556875 22.47980469 -1.11375 21.77210938 -1.6875 21.04296875 C-3 19 -3 19 -3 16 C-3.99 15.67 -4.98 15.34 -6 15 C-6.33 13.02 -6.66 11.04 -7 9 C-6.360625 8.87625 -5.72125 8.7525 -5.0625 8.625 C-4.381875 8.41875 -3.70125 8.2125 -3 8 C-2.67 7.34 -2.34 6.68 -2 6 C-1.34 6 -0.68 6 0 6 C0 4.02 0 2.04 0 0 Z " fill="#4F9883" transform="translate(95,223)"/>
<path d="M0 0 C5.47617665 3.80290045 8.33852029 7.96821801 9.75 14.4375 C9.87375 15.7059375 9.87375 15.7059375 10 17 C9.34 16.67 8.68 16.34 8 16 C8 14.68 8 13.36 8 12 C7.34 12 6.68 12 6 12 C6 11.34 6 10.68 6 10 C3.84188612 10.94729537 3.84188612 10.94729537 2 13 C-1 13 -1 13 -3 12 C-3 10.35 -3 8.7 -3 7 C-4.65 7 -6.3 7 -8 7 C-5.42215154 4.35247996 -3.08351902 2.05567935 0 0 Z " fill="#46977E" transform="translate(42,162)"/>
<path d="M0 0 C2.29160319 -0.02692484 4.58329546 -0.04636124 6.875 -0.0625 C8.15117187 -0.07410156 9.42734375 -0.08570313 10.7421875 -0.09765625 C14 0 14 0 16 1 C16 3.64 16 6.28 16 9 C14.824375 8.505 14.824375 8.505 13.625 8 C9.00638131 6.72589829 4.75750644 6.83076064 0 7 C0 5 0 5 1.5 3.375 C1.995 2.92125 2.49 2.4675 3 2 C2.01 2 1.02 2 0 2 C0 1.34 0 0.68 0 0 Z " fill="#529C85" transform="translate(139,190)"/>
<path d="M0 0 C0.99 0.33 1.98 0.66 3 1 C3 1.66 3 2.32 3 3 C3.928125 3.4640625 3.928125 3.4640625 4.875 3.9375 C6.25 4.625 7.625 5.3125 9 6 C9 6.66 9 7.32 9 8 C9.66 8 10.32 8 11 8 C12.32 10.31 13.64 12.62 15 15 C13.125 14.6875 13.125 14.6875 11 14 C10.34 13.01 9.68 12.02 9 11 C8.01 11.33 7.02 11.66 6 12 C6.60183749 14.02045442 7.27306096 16.02111039 8 18 C8.66 18.33 9.32 18.66 10 19 C9.67 20.32 9.34 21.64 9 23 C7.72839334 21.41728767 6.45774715 19.83380365 5.1875 18.25 C4.12595703 16.92742187 4.12595703 16.92742187 3.04296875 15.578125 C1.32494998 13.41007071 -0.35373976 11.22271099 -2 9 C0.97 9.495 0.97 9.495 4 10 C3.67 9.67 3.34 9.34 3 9 C2.25223886 6.50746285 2 4.63664741 2 2 C1.34 2 0.68 2 0 2 C0 1.34 0 0.68 0 0 Z " fill="#69A694" transform="translate(122,193)"/>
<path d="M0 0 C0.66 0 1.32 0 2 0 C5.97633713 6.54171592 7.14083573 11.05726314 7.0625 18.8125 C7.05347656 19.97394531 7.04445313 21.13539063 7.03515625 22.33203125 C7.02355469 23.21246094 7.01195312 24.09289062 7 25 C4.32072659 20.98108988 4.84398752 18.75838077 5 14 C4.34 14 3.68 14 3 14 C2.34 15.65 1.68 17.3 1 19 C0.01 19 -0.98 19 -2 19 C-1.649375 18.484375 -1.29875 17.96875 -0.9375 17.4375 C0.69464782 13.19391567 -0.60320067 9.190398 -2 5 C-1.0625 2.875 -1.0625 2.875 0 1 C0 0.67 0 0.34 0 0 Z " fill="#65A28D" transform="translate(258,240)"/>
<path d="M0 0 C0 0.33 0 0.66 0 1 C-0.71027344 1.04898438 -1.42054688 1.09796875 -2.15234375 1.1484375 C-3.53099609 1.26058594 -3.53099609 1.26058594 -4.9375 1.375 C-5.85402344 1.44460937 -6.77054687 1.51421875 -7.71484375 1.5859375 C-8.84599609 1.79089844 -8.84599609 1.79089844 -10 2 C-10.33 2.66 -10.66 3.32 -11 4 C-10.34 4.66 -9.68 5.32 -9 6 C-10.2065625 7.175625 -10.2065625 7.175625 -11.4375 8.375 C-13.98690417 10.71982856 -13.98690417 10.71982856 -15 13 C-16.32 13 -17.64 13 -19 13 C-19.33 15.64 -19.66 18.28 -20 21 C-20.33 21 -20.66 21 -21 21 C-21.05423638 19.08364783 -21.09289963 17.16685075 -21.125 15.25 C-21.14820313 14.18265625 -21.17140625 13.1153125 -21.1953125 12.015625 C-21.00487687 9.07529894 -20.52670104 7.47638122 -19 5 C-18.34 5 -17.68 5 -17 5 C-17 4.34 -17 3.68 -17 3 C-11.737176 -1.87298519 -6.60428093 -1.00743268 0 0 Z " fill="#7DB0A1" transform="translate(485,237)"/>
<path d="M0 0 C3.37462715 0.54723683 5.08235 1.0549 8 3 C7.52112335 7.76264597 5.50511358 10.22641652 2.4375 13.8125 C1.19806641 15.27623047 1.19806641 15.27623047 -0.06640625 16.76953125 C-0.70449219 17.50558594 -1.34257813 18.24164063 -2 19 C-2.66 17.68 -3.32 16.36 -4 15 C-3.67 14.67 -3.34 14.34 -3 14 C-3.66 13.34 -4.32 12.68 -5 12 C-3.68 11.67 -2.36 11.34 -1 11 C-1 11.66 -1 12.32 -1 13 C-0.34 13 0.32 13 1 13 C0.67 11.02 0.34 9.04 0 7 C0.66 7 1.32 7 2 7 C2 6.01 2 5.02 2 4 C1.34 4 0.68 4 0 4 C-0.33 4.66 -0.66 5.32 -1 6 C-1.66 5.67 -2.32 5.34 -3 5 C-3 4.34 -3 3.68 -3 3 C-2.34 3 -1.68 3 -1 3 C-0.67 2.01 -0.34 1.02 0 0 Z " fill="#6FA298" transform="translate(107,209)"/>
<path d="M0 0 C1.34028459 2.68056917 0.77570686 4.08858764 0.1875 7 C0.01605469 7.886875 -0.15539062 8.77375 -0.33203125 9.6875 C-1 12 -1 12 -3 14 C-6.625 14.125 -6.625 14.125 -10 14 C-9.77560344 8.39008601 -8.51447236 5.87038358 -4.5703125 2.1640625 C-3 1 -3 1 0 0 Z " fill="#5C9D89" transform="translate(80,246)"/>
<path d="M0 0 C0.66 0 1.32 0 2 0 C2 5.94 2 11.88 2 18 C0.35 17.67 -1.3 17.34 -3 17 C-3 16.34 -3 15.68 -3 15 C-3.66 15 -4.32 15 -5 15 C-5.8125 12.3125 -5.8125 12.3125 -6 9 C-3.625 6.375 -3.625 6.375 -1 4 C-0.13880866 1.82653432 -0.13880866 1.82653432 0 0 Z " fill="#579883" transform="translate(434,250)"/>
<path d="M0 0 C2.85258226 2.26672185 5.21543867 4.43176973 6.22265625 7.95703125 C6.36782334 10.64780687 6.31264025 13.25751114 6.22265625 15.95703125 C5.89265625 15.95703125 5.56265625 15.95703125 5.22265625 15.95703125 C4.89265625 13.64703125 4.56265625 11.33703125 4.22265625 8.95703125 C2.90265625 9.94703125 1.58265625 10.93703125 0.22265625 11.95703125 C-0.10734375 11.00828125 -0.43734375 10.05953125 -0.77734375 9.08203125 C-2.9501829 5.68697008 -3.29624797 5.46509147 -6.96484375 4.58203125 C-8.22296875 4.37578125 -9.48109375 4.16953125 -10.77734375 3.95703125 C-10.77734375 3.62703125 -10.77734375 3.29703125 -10.77734375 2.95703125 C-8.46734375 2.29703125 -6.15734375 1.63703125 -3.77734375 0.95703125 C-7.40734375 0.62703125 -11.03734375 0.29703125 -14.77734375 -0.04296875 C-14.77734375 -0.37296875 -14.77734375 -0.70296875 -14.77734375 -1.04296875 C-9.82511233 -2.43578384 -4.52829797 -2.65726496 0 0 Z " fill="#86B4A5" transform="translate(314.77734375,238.04296875)"/>
<path d="M0 0 C2 2 2 2 2 4 C0.08245277 6.16766209 -1.38259005 6.94792928 -4.26953125 7.19140625 C-6.52030532 7.18786172 -8.75317276 7.12962465 -11 7 C-11 7.66 -11 8.32 -11 9 C-12.65 9 -14.3 9 -16 9 C-15.1875 6.5625 -15.1875 6.5625 -14 4 C-13.01 3.67 -12.02 3.34 -11 3 C-11.99 2.67 -12.98 2.34 -14 2 C-9.23057011 0.6842952 -4.99206251 -0.47543452 0 0 Z " fill="#45957C" transform="translate(78,274)"/>
<path d="M0 0 C0.33 0 0.66 0 1 0 C1.33 13.2 1.66 26.4 2 40 C2.99 40 3.98 40 5 40 C4.97679687 39.30132812 4.95359375 38.60265625 4.9296875 37.8828125 C4.90261719 36.51769531 4.90261719 36.51769531 4.875 35.125 C4.85179687 34.22007812 4.82859375 33.31515625 4.8046875 32.3828125 C5 30 5 30 7 28 C7.05386629 30.12472576 7.09273071 32.24983652 7.125 34.375 C7.14820313 35.55835938 7.17140625 36.74171875 7.1953125 37.9609375 C7 41 7 41 5 43 C3.35 42.67 1.7 42.34 0 42 C0 28.14 0 14.28 0 0 Z " fill="#8EB6AA" transform="translate(186,225)"/>
<path d="M0 0 C0.99 0 1.98 0 3 0 C3.66 0.99 4.32 1.98 5 3 C4.67 3.99 4.34 4.98 4 6 C3.34 5.67 2.68 5.34 2 5 C2 5.66 2 6.32 2 7 C0.54494642 7.52992692 -0.91418127 8.0486789 -2.375 8.5625 C-3.59316406 8.99755859 -3.59316406 8.99755859 -4.8359375 9.44140625 C-7 10 -7 10 -9 9 C-9 9.66 -9 10.32 -9 11 C-9.99 11 -10.98 11 -12 11 C-11.67 9.35 -11.34 7.7 -11 6 C-10.195625 5.87625 -9.39125 5.7525 -8.5625 5.625 C-7.716875 5.41875 -6.87125 5.2125 -6 5 C-5.67 4.34 -5.34 3.68 -5 3 C-5 3.66 -5 4.32 -5 5 C-4.34 5 -3.68 5 -3 5 C-3 4.34 -3 3.68 -3 3 C-2.34 3 -1.68 3 -1 3 C-0.67 2.01 -0.34 1.02 0 0 Z M7 0 C7.33 0.99 7.66 1.98 8 3 C7.01 2.67 6.02 2.34 5 2 C5.66 2 6.32 2 7 2 C7 1.34 7 0.68 7 0 Z " fill="#41967C" transform="translate(135,254)"/>
<path d="M0 0 C0.33 0 0.66 0 1 0 C1.12117188 0.81082031 1.24234375 1.62164062 1.3671875 2.45703125 C2.99256154 14.88193386 2.99256154 14.88193386 6 27 C5.67 27.66 5.34 28.32 5 29 C5.66 29 6.32 29 7 29 C7.28875 29.969375 7.5775 30.93875 7.875 31.9375 C8.64214682 35.10664203 8.64214682 35.10664203 11 36 C11 36.66 11 37.32 11 38 C12.98 38.99 14.96 39.98 17 41 C17 41.33 17 41.66 17 42 C14.69140625 42.2109375 14.69140625 42.2109375 12 42 C6.69021174 37.52728424 4.15388546 30.39952506 2 24 C1.5875 22.80375 1.175 21.6075 0.75 20.375 C-0.80190912 13.81341934 -0.14621656 6.69346933 0 0 Z " fill="#7AAC9D" transform="translate(37,231)"/>
<path d="M0 0 C1.32 0 2.64 0 4 0 C4 2.97 4 5.94 4 9 C5.32 9 6.64 9 8 9 C8 9.99 8 10.98 8 12 C8.66 12.33 9.32 12.66 10 13 C7.69 13 5.38 13 3 13 C3 13.66 3 14.32 3 15 C2.34 15 1.68 15 1 15 C0.67 15.66 0.34 16.32 0 17 C-0.90654677 11.67403774 -1.39446773 6.40652829 -1 1 C-0.67 0.67 -0.34 0.34 0 0 Z " fill="#559C88" transform="translate(447,229)"/>
<path d="M0 0 C1.09957031 0.08378906 2.19914062 0.16757812 3.33203125 0.25390625 C11.67492406 0.84422755 19.67698996 1.16845713 28 0 C22.06147771 3.95901486 15.91895619 4.24710558 9 4 C9 3.34 9 2.68 9 2 C6.69 2.33 4.38 2.66 2 3 C1.67 3.99 1.34 4.98 1 6 C3.64 6.99 6.28 7.98 9 9 C9 9.33 9 9.66 9 10 C2.74117647 10.36108597 2.74117647 10.36108597 -0.4375 8.8125 C-2 7 -2 7 -2.25 4.3125 C-2.1675 3.549375 -2.085 2.78625 -2 2 C-1.34 2 -0.68 2 0 2 C0 1.34 0 0.68 0 0 Z " fill="#76A999" transform="translate(78,283)"/>
<path d="M0 0 C0.66 0 1.32 0 2 0 C2.38873828 1.95565258 2.76060833 3.91466504 3.125 5.875 C3.33382813 6.96554687 3.54265625 8.05609375 3.7578125 9.1796875 C3.83773438 10.11039062 3.91765625 11.04109375 4 12 C3.34 12.66 2.68 13.32 2 14 C0.68 14 -0.64 14 -2 14 C-2.33 13.01 -2.66 12.02 -3 11 C-4.65 11 -6.3 11 -8 11 C-7.67 10.01 -7.34 9.02 -7 8 C-6.34 8 -5.68 8 -5 8 C-5 7.34 -5 6.68 -5 6 C-3.68799596 4.64567325 -2.35368596 3.31266518 -1 2 C-0.67 1.34 -0.34 0.68 0 0 Z " fill="#46937B" transform="translate(261,254)"/>
<path d="M0 0 C0.99 0.66 1.98 1.32 3 2 C3 2.66 3 3.32 3 4 C3.66 4 4.32 4 5 4 C5.33 5.65 5.66 7.3 6 9 C4.68 9.99 3.36 10.98 2 12 C-2.55015893 10.48328036 -4.50057264 6.83108947 -7 3 C-6.34 2.67 -5.68 2.34 -5 2 C-4.67 2.33 -4.34 2.66 -4 3 C-1.94603274 2.59070014 -1.94603274 2.59070014 0 2 C0 1.34 0 0.68 0 0 Z " fill="#65A692" transform="translate(108,251)"/>
<path d="M0 0 C5.52677733 -0.19392201 9.75614911 0.2520497 15 2 C14.125 7.875 14.125 7.875 13 9 C11.33382885 9.04063832 9.66611905 9.042721 8 9 C7.67 7.68 7.34 6.36 7 5 C6.401875 4.9175 5.80375 4.835 5.1875 4.75 C2.4033704 3.79544128 1.56688858 2.42867729 0 0 Z " fill="#45967D" transform="translate(158,197)"/>
<path d="M0 0 C2 2 2 2 2 6 C2.66 6 3.32 6 4 6 C3.62501313 8.60811763 3.27084671 9.75332497 1.29296875 11.5546875 C0.59816406 11.99039063 -0.09664062 12.42609375 -0.8125 12.875 C-1.84310547 13.55175781 -1.84310547 13.55175781 -2.89453125 14.2421875 C-5 15 -5 15 -7.26171875 14.1328125 C-7.83535156 13.75898438 -8.40898437 13.38515625 -9 13 C-9 12.01 -9 11.02 -9 10 C-6 9 -6 9 -4 9 C-3.896875 8.2575 -3.79375 7.515 -3.6875 6.75 C-2.95746496 3.82985982 -1.93210602 2.26812446 0 0 Z " fill="#46957C" transform="translate(168,228)"/>
<path d="M0 0 C1.98 0 3.96 0 6 0 C6.33 1.32 6.66 2.64 7 4 C8.65 4 10.3 4 12 4 C11.67 5.65 11.34 7.3 11 9 C6.90114782 9.47661072 5.44069635 9.3448928 2.125 6.75 C0 4 0 4 0 0 Z " fill="#74A896" transform="translate(391,259)"/>
<path d="M0 0 C0.680625 0.474375 1.36125 0.94875 2.0625 1.4375 C5.41841956 3.2225636 8.24161481 3.63153086 12 4 C11.67 5.98 11.34 7.96 11 10 C9.02 10.33 7.04 10.66 5 11 C4.690625 10.360625 4.38125 9.72125 4.0625 9.0625 C3.1654837 7.06389179 3.1654837 7.06389179 2 6 C1.01 6.66 0.02 7.32 -1 8 C-1.66 6.02 -2.32 4.04 -3 2 C-2.01 1.34 -1.02 0.68 0 0 Z " fill="#44957C" transform="translate(17,269)"/>
<path d="M0 0 C1.32 0.33 2.64 0.66 4 1 C3.01 1.33 2.02 1.66 1 2 C1.04640625 2.74765625 1.0928125 3.4953125 1.140625 4.265625 C1.43910806 12.40994854 1.43910806 12.40994854 -1 15.6875 C-1.66 16.120625 -2.32 16.55375 -3 17 C-4 16 -4 16 -4.1328125 14.07421875 C-4.13023437 13.28660156 -4.12765625 12.49898437 -4.125 11.6875 C-4.12757813 10.90761719 -4.13015625 10.12773437 -4.1328125 9.32421875 C-4.00499912 7.08748461 -3.61913869 5.14733021 -3 3 C-2.34 3 -1.68 3 -1 3 C-0.67 2.01 -0.34 1.02 0 0 Z " fill="#579681" transform="translate(409,241)"/>
<path d="M0 0 C1.4540625 0.0309375 1.4540625 0.0309375 2.9375 0.0625 C2.9375 1.3825 2.9375 2.7025 2.9375 4.0625 C-0.0625 6.0625 -0.0625 6.0625 -4.0625 6.0625 C-4.0625 5.0725 -4.0625 4.0825 -4.0625 3.0625 C-5.0525 3.0625 -6.0425 3.0625 -7.0625 3.0625 C-7.0625 3.7225 -7.0625 4.3825 -7.0625 5.0625 C-10.38784757 6.17094919 -12.68432575 5.90704356 -16.0625 5.0625 C-15.7325 4.0725 -15.4025 3.0825 -15.0625 2.0625 C-14.28003906 2.00191406 -13.49757813 1.94132812 -12.69140625 1.87890625 C-11.67949219 1.79511719 -10.66757812 1.71132813 -9.625 1.625 C-8.61566406 1.54378906 -7.60632813 1.46257812 -6.56640625 1.37890625 C-3.37093261 0.97511005 -3.41885129 0.06977248 0 0 Z " fill="#6DA291" transform="translate(488.0625,260.9375)"/>
<path d="M0 0 C0.86625 0.3403125 0.86625 0.3403125 1.75 0.6875 C0.76 1.1825 0.76 1.1825 -0.25 1.6875 C2.0578491 2.84142455 4.22230331 3.22187166 6.75 3.6875 C6.75 4.0175 6.75 4.3475 6.75 4.6875 C5.81027344 4.96013672 5.81027344 4.96013672 4.8515625 5.23828125 C3.62566406 5.61533203 3.62566406 5.61533203 2.375 6 C1.15683594 6.36544922 1.15683594 6.36544922 -0.0859375 6.73828125 C-2.58184629 7.60118185 -2.58184629 7.60118185 -4.25 10.6875 C-4.49187651 13.43268321 -4.49187651 13.43268321 -4.375 16.375 C-4.35695313 17.36886719 -4.33890625 18.36273438 -4.3203125 19.38671875 C-4.29710937 20.14597656 -4.27390625 20.90523438 -4.25 21.6875 C-4.91 21.3575 -5.57 21.0275 -6.25 20.6875 C-6.25 15.7375 -6.25 10.7875 -6.25 5.6875 C-5.59 5.3575 -4.93 5.0275 -4.25 4.6875 C-4.91 4.0275 -5.57 3.3675 -6.25 2.6875 C-2.80384615 -0.38942308 -2.80384615 -0.38942308 0 0 Z " fill="#71A997" transform="translate(416.25,237.3125)"/>
<path d="M0 0 C0.75 2.75 0.75 2.75 1 6 C-1.21807236 8.95742982 -3.62528989 10.55369567 -7 12 C-6.67 10.68 -6.34 9.36 -6 8 C-5.01 8 -4.02 8 -3 8 C-3 5.69 -3 3.38 -3 1 C-3.66 1 -4.32 1 -5 1 C-5 1.66 -5 2.32 -5 3 C-5.99 3.66 -6.98 4.32 -8 5 C-8.66 5.66 -9.32 6.32 -10 7 C-12.625 7.625 -12.625 7.625 -15 8 C-13.625 6 -13.625 6 -12 4 C-11.34 4 -10.68 4 -10 4 C-10 3.34 -10 2.68 -10 2 C-6.3558226 -0.4294516 -4.28758728 -0.16179575 0 0 Z " fill="#71AA9A" transform="translate(32,222)"/>
<path d="M0 0 C3.3125 0.125 3.3125 0.125 6 1 C3.375 5.875 3.375 5.875 0 7 C-0.33 8.98 -0.66 10.96 -1 13 C-3.475 12.01 -3.475 12.01 -6 11 C-6 10.34 -6 9.68 -6 9 C-6.66 8.34 -7.32 7.68 -8 7 C-7.01 6.67 -6.02 6.34 -5 6 C-4.236875 4.96875 -3.47375 3.9375 -2.6875 2.875 C-1.800625 1.92625 -0.91375 0.9775 0 0 Z " fill="#44967C" transform="translate(15,234)"/>
<path d="M0 0 C0.91007812 0.00902344 1.82015625 0.01804688 2.7578125 0.02734375 C3.45648438 0.03894531 4.15515625 0.05054688 4.875 0.0625 C5.205 1.3825 5.535 2.7025 5.875 4.0625 C5.215 4.0625 4.555 4.0625 3.875 4.0625 C3.545 4.7225 3.215 5.3825 2.875 6.0625 C-0.755 6.0625 -4.385 6.0625 -8.125 6.0625 C-7.795 4.4125 -7.465 2.7625 -7.125 1.0625 C-4.60024538 -0.19987731 -2.81299534 -0.03606404 0 0 Z " fill="#599A85" transform="translate(339.125,223.9375)"/>
<path d="M0 0 C0.99 0 1.98 0 3 0 C3 0.66 3 1.32 3 2 C4.65 1.34 6.3 0.68 8 0 C11.93809611 3.76687454 11.93809611 3.76687454 12.09765625 6.9453125 C12.04882812 9.97265625 12.04882812 9.97265625 12 13 C10.00902154 10.01353231 9.05875074 7.40312738 8 4 C6.68 4.33 5.36 4.66 4 5 C4.66 6.98 5.32 8.96 6 11 C5.34 11.66 4.68 12.32 4 13 C2.14038586 8.7494534 1.06795435 4.50066475 0 0 Z " fill="#63A390" transform="translate(134,221)"/>
<path d="M0 0 C0.53625 0.45375 1.0725 0.9075 1.625 1.375 C4.31698302 3.21688312 6.88520388 4.07971933 10 5 C9.67 6.32 9.34 7.64 9 9 C4.03567635 9.29201904 0.96298426 9.14707573 -3 6 C-3.33 5.01 -3.66 4.02 -4 3 C-1 4 -1 4 2 6 C2 5.34 2 4.68 2 4 C1.34 4 0.68 4 0 4 C0 2.68 0 1.36 0 0 Z " fill="#6AA48F" transform="translate(278,259)"/>
<path d="M0 0 C2.375 2 2.375 2 4 4 C3.34 5.32 2.68 6.64 2 8 C0.02 7.34 -1.96 6.68 -4 6 C-4 5.34 -4 4.68 -4 4 C-5.32 4 -6.64 4 -8 4 C-8 3.34 -8 2.68 -8 2 C-8.66 1.67 -9.32 1.34 -10 1 C-6.59019864 -0.04916965 -3.55615217 -0.37043252 0 0 Z " fill="#5E9D89" transform="translate(255,237)"/>
<path d="M0 0 C-0.99 0.66 -1.98 1.32 -3 2 C-3 2.66 -3 3.32 -3 4 C-1.68 4.33 -0.36 4.66 1 5 C0.38511719 5.19335938 -0.22976562 5.38671875 -0.86328125 5.5859375 C-1.67152344 5.84632813 -2.47976562 6.10671875 -3.3125 6.375 C-4.11300781 6.63023437 -4.91351563 6.88546875 -5.73828125 7.1484375 C-8.22724528 7.98831811 -8.22724528 7.98831811 -11 10 C-11 8.02 -11 6.04 -11 4 C-11.66 3.67 -12.32 3.34 -13 3 C-8.38948622 0.05439397 -5.37637186 -1.72811953 0 0 Z " fill="#77AD9B" transform="translate(250,237)"/>
<path d="M0 0 C0.99 0.66 1.98 1.32 3 2 C2.8125 4.375 2.8125 4.375 2 7 C-1.85396294 9.38038888 -5.5702869 9.17371424 -10 9 C-8.68 8.34 -7.36 7.68 -6 7 C-6.33 6.67 -6.66 6.34 -7 6 C-7.66 6 -8.32 6 -9 6 C-9 5.01 -9 4.02 -9 3 C-7.88625 2.87625 -6.7725 2.7525 -5.625 2.625 C-1.96896323 2.3534187 -1.96896323 2.3534187 0 0 Z " fill="#74AD99" transform="translate(427,260)"/>
<path d="M0 0 C0 0.66 0 1.32 0 2 C-2.31 2.33 -4.62 2.66 -7 3 C-7.33 3.99 -7.66 4.98 -8 6 C-9.3153341 6.70151152 -10.65117592 7.36525925 -12 8 C-12.7425 8.8353125 -12.7425 8.8353125 -13.5 9.6875 C-15 11 -15 11 -17.125 10.875 C-18.053125 10.441875 -18.053125 10.441875 -19 10 C-19.33 9.01 -19.66 8.02 -20 7 C-17.23174812 5.82685974 -14.46071514 4.66129785 -11.6875 3.5 C-10.50897461 2.99919922 -10.50897461 2.99919922 -9.30664062 2.48828125 C-8.54931641 2.17246094 -7.79199219 1.85664063 -7.01171875 1.53125 C-6.31522217 1.23798828 -5.61872559 0.94472656 -4.90112305 0.64257812 C-3 0 -3 0 0 0 Z " fill="#61A08A" transform="translate(129,257)"/>
<path d="M0 0 C3.73487777 0.4979837 5.81237635 0.87491756 9 3 C9 3.66 9 4.32 9 5 C9.66 5 10.32 5 11 5 C11.33 6.65 11.66 8.3 12 10 C11.01 9.67 10.02 9.34 9 9 C8.67 11.64 8.34 14.28 8 17 C7.67 17 7.34 17 7 17 C6.87882813 16.36191406 6.75765625 15.72382813 6.6328125 15.06640625 C6.46523437 14.24011719 6.29765625 13.41382813 6.125 12.5625 C5.88136719 11.32693359 5.88136719 11.32693359 5.6328125 10.06640625 C5.31957031 9.04353516 5.31957031 9.04353516 5 8 C4.34 7.67 3.68 7.34 3 7 C3.99 6.34 4.98 5.68 6 5 C4.68 4.34 3.36 3.68 2 3 C2 2.34 2 1.68 2 1 C1.34 0.67 0.68 0.34 0 0 Z " fill="#7BAE9F" transform="translate(202,224)"/>
<path d="M0 0 C0.763125 0.37125 1.52625 0.7425 2.3125 1.125 C3.6428125 1.558125 3.6428125 1.558125 5 2 C5.99 1.34 6.98 0.68 8 0 C8.33 1.32 8.66 2.64 9 4 C5.93109813 5.53445094 3.29905734 4.54984289 0 4 C-0.33 5.32 -0.66 6.64 -1 8 C-1.99 7.34 -2.98 6.68 -4 6 C-4.99 6 -5.98 6 -7 6 C-6.25 4.0625 -6.25 4.0625 -5 2 C-2.9375 1.3125 -2.9375 1.3125 -1 1 C-0.67 0.67 -0.34 0.34 0 0 Z " fill="#42967C" transform="translate(93,270)"/>
<path d="M0 0 C3.16115776 1.36983503 3.9927092 1.9890638 6 5 C6.1953125 7.91796875 6.1953125 7.91796875 6.125 11.1875 C6.10695313 12.27417969 6.08890625 13.36085937 6.0703125 14.48046875 C6.03550781 15.72763672 6.03550781 15.72763672 6 17 C5.67 17 5.34 17 5 17 C4.67 14.03 4.34 11.06 4 8 C3.01 7.67 2.02 7.34 1 7 C0.67 8.32 0.34 9.64 0 11 C-0.309375 10.21625 -0.61875 9.4325 -0.9375 8.625 C-1.92875038 6.07669872 -1.92875038 6.07669872 -3 4 C-2.67 3.34 -2.34 2.68 -2 2 C-1.34 2 -0.68 2 0 2 C0 1.34 0 0.68 0 0 Z " fill="#76AE9A" transform="translate(345,226)"/>
<path d="M0 0 C-0.33 2.31 -0.66 4.62 -1 7 C-2.175625 6.9690625 -2.175625 6.9690625 -3.375 6.9375 C-5.98114961 6.81315937 -5.98114961 6.81315937 -8 8 C-8.33 5.69 -8.66 3.38 -9 1 C-5.64919071 -1.10976881 -3.77897651 -1.0497157 0 0 Z " fill="#4E9782" transform="translate(105,222)"/>
<path d="M0 0 C0.66 0 1.32 0 2 0 C2 0.66 2 1.32 2 2 C2.66 2 3.32 2 4 2 C4 2.99 4 3.98 4 5 C4.66 5.33 5.32 5.66 6 6 C5.67 6.66 5.34 7.32 5 8 C5.66 8.33 6.32 8.66 7 9 C6.67 9.66 6.34 10.32 6 11 C4.02 10.34 2.04 9.68 0 9 C0 8.01 0 7.02 0 6 C-1.32 6 -2.64 6 -4 6 C-4 4.35 -4 2.7 -4 1 C-2.68 1.33 -1.36 1.66 0 2 C0 1.34 0 0.68 0 0 Z " fill="#46957C" transform="translate(120,193)"/>
<path d="M0 0 C0.99 0 1.98 0 3 0 C3.2295711 3.36704285 3.33943529 5.41370268 1.625 8.375 C1.08875 8.91125 0.5525 9.4475 0 10 C-0.66 10 -1.32 10 -2 10 C-2 10.66 -2 11.32 -2 12 C-2.99 12 -3.98 12 -5 12 C-3.87143971 7.57257117 -2.78443571 3.67545514 0 0 Z " fill="#5B9B84" transform="translate(383,240)"/>
<path d="M0 0 C0.33 0.66 0.66 1.32 1 2 C0.01 2.99 -0.98 3.98 -2 5 C-0.68 5.33 0.64 5.66 2 6 C-2.55426184 8.66590937 -5.73946963 9.31563182 -11 9 C-11 8.67 -11 8.34 -11 8 C-9.35 7.67 -7.7 7.34 -6 7 C-8.1385485 4.8614515 -9.13275314 4.57344937 -12 4 C-11.67 3.34 -11.34 2.68 -11 2 C-9.01432292 2.06510417 -7.02864583 2.13020833 -5.04296875 2.1953125 C-2.68640281 2.13254462 -2.68640281 2.13254462 0 0 Z " fill="#7CAB9D" transform="translate(255,260)"/>
<path d="M0 0 C1.9451 2.91765 2.45276317 4.62537285 3 8 C-3.75 11 -3.75 11 -6 11 C-4.88059018 6.14922412 -3.8665284 3.222107 0 0 Z " fill="#66A290" transform="translate(208,242)"/>
<path d="M0 0 C0 1.65 0 3.3 0 5 C-1.58409994 4.88512252 -3.16728963 4.75765492 -4.75 4.625 C-5.63171875 4.55539063 -6.5134375 4.48578125 -7.421875 4.4140625 C-9.99066382 4.00149945 -11.75841015 3.28839043 -14 2 C-8.76579213 -1.27137992 -5.83394389 -1.10643764 0 0 Z " fill="#6DA492" transform="translate(427,237)"/>
<path d="M0 0 C-0.99 0.33 -1.98 0.66 -3 1 C-3 1.66 -3 2.32 -3 3 C-2.01 3 -1.02 3 0 3 C-0.33 3.99 -0.66 4.98 -1 6 C-1.66 6 -2.32 6 -3 6 C-3 6.66 -3 7.32 -3 8 C-4.65 7.67 -6.3 7.34 -8 7 C-8 5.02 -8 3.04 -8 1 C-5.29120665 -0.35439668 -2.99066732 -0.06501451 0 0 Z " fill="#63A28C" transform="translate(142,189)"/>
<path d="M0 0 C0 0.33 0 0.66 0 1 C-0.71027344 1.04898438 -1.42054688 1.09796875 -2.15234375 1.1484375 C-3.53099609 1.26058594 -3.53099609 1.26058594 -4.9375 1.375 C-5.85402344 1.44460937 -6.77054687 1.51421875 -7.71484375 1.5859375 C-8.84599609 1.79089844 -8.84599609 1.79089844 -10 2 C-10.33 2.66 -10.66 3.32 -11 4 C-10.34 4.66 -9.68 5.32 -9 6 C-11.97 8.475 -11.97 8.475 -15 11 C-14.67 8.69 -14.34 6.38 -14 4 C-14.99 3.67 -15.98 3.34 -17 3 C-11.4733951 -1.70784862 -6.79628832 -1.03672195 0 0 Z " fill="#88B3A6" transform="translate(485,237)"/>
<path d="M0 0 C0.99 0.33 1.98 0.66 3 1 C3 1.66 3 2.32 3 3 C3.99 3 4.98 3 6 3 C6 3.66 6 4.32 6 5 C2.63316085 7.43160605 1.26649636 8 -3 8 C-3.66 9.32 -4.32 10.64 -5 12 C-5.33 9.69 -5.66 7.38 -6 5 C-4.35 5 -2.7 5 -1 5 C-0.67 3.35 -0.34 1.7 0 0 Z " fill="#64A792" transform="translate(38,199)"/>
<path d="M0 0 C1.10844919 3.32534757 0.84454356 5.62182575 0 9 C-0.99 9 -1.98 9 -3 9 C-3 9.66 -3 10.32 -3 11 C-3.66 11 -4.32 11 -5 11 C-5.36717663 3.5340751 -5.36717663 3.5340751 -3.625 1 C-2 0 -2 0 0 0 Z " fill="#599B86" transform="translate(239,241)"/>
<path d="M0 0 C3.96 0 7.92 0 12 0 C11.01 1.485 11.01 1.485 10 3 C6.875 3.1875 6.875 3.1875 4 3 C4 3.66 4 4.32 4 5 C1.69 4.67 -0.62 4.34 -3 4 C-2.34 3.67 -1.68 3.34 -1 3 C-0.67 2.01 -0.34 1.02 0 0 Z " fill="#4A9078" transform="translate(300,238)"/>
<path d="M0 0 C2.8208331 3.52604138 2.14278164 7.71655067 2 12 C1.67 12 1.34 12 1 12 C0.67 9.69 0.34 7.38 0 5 C-1.32 5.99 -2.64 6.98 -4 8 C-7 2.25 -7 2.25 -7 0 C-3.87438528 -1.04187157 -2.95319818 -1.23843794 0 0 Z " fill="#76A997" transform="translate(319,242)"/>
<path d="M0 0 C3.37462715 0.54723683 5.08235 1.0549 8 3 C7.625 5.4375 7.625 5.4375 7 8 C6.01 8.495 6.01 8.495 5 9 C4.67 7.68 4.34 6.36 4 5 C2.68 4.67 1.36 4.34 0 4 C-0.33 4.66 -0.66 5.32 -1 6 C-1.66 5.67 -2.32 5.34 -3 5 C-3 4.34 -3 3.68 -3 3 C-2.34 3 -1.68 3 -1 3 C-0.67 2.01 -0.34 1.02 0 0 Z " fill="#82ADA2" transform="translate(107,209)"/>
<path d="M0 0 C2.31 0.66 4.62 1.32 7 2 C7 3.65 7 5.3 7 7 C4.03 6.67 1.06 6.34 -2 6 C-2 5.34 -2 4.68 -2 4 C-1.34 4 -0.68 4 0 4 C0 2.68 0 1.36 0 0 Z " fill="#619D89" transform="translate(223,261)"/>
<path d="M0 0 C1.1446875 0.12375 1.1446875 0.12375 2.3125 0.25 C2.3125 1.24 2.3125 2.23 2.3125 3.25 C0.3125 5.25 0.3125 5.25 -1.6875 6.25 C-2.0175 7.24 -2.3475 8.23 -2.6875 9.25 C-2.6875 7.93 -2.6875 6.61 -2.6875 5.25 C-3.0175 6.9 -3.3475 8.55 -3.6875 10.25 C-4.6775 9.92 -5.6675 9.59 -6.6875 9.25 C-6.04078163 4.59362773 -5.23074478 0.48658091 0 0 Z " fill="#44957C" transform="translate(152.6875,244.75)"/>
<path d="M0 0 C0 2 0 2 -1.6796875 3.7265625 C-2.40414063 4.35304687 -3.12859375 4.97953125 -3.875 5.625 C-4.59429687 6.25664062 -5.31359375 6.88828125 -6.0546875 7.5390625 C-8 9 -8 9 -10 9 C-10.33 9.99 -10.66 10.98 -11 12 C-11.99 11.67 -12.98 11.34 -14 11 C-12.56974806 9.34786411 -11.13054455 7.70347411 -9.6875 6.0625 C-8.88699219 5.14597656 -8.08648437 4.22945312 -7.26171875 3.28515625 C-4.86126164 0.85982393 -3.43550311 0 0 0 Z " fill="#61A48E" transform="translate(21,229)"/>
<path d="M0 0 C0.598125 0.350625 1.19625 0.70125 1.8125 1.0625 C1.19375 2.114375 0.575 3.16625 -0.0625 4.25 C-1.70329108 7.11265677 -3.05734453 9.95457246 -4.1875 13.0625 C-6.1875 10.0625 -6.1875 10.0625 -6.1875 8.0625 C-5.5275 8.0625 -4.8675 8.0625 -4.1875 8.0625 C-4.538125 7.11375 -4.88875 6.165 -5.25 5.1875 C-6.1875 2.0625 -6.1875 2.0625 -5.1875 0.0625 C-2.1875 -0.9375 -2.1875 -0.9375 0 0 Z " fill="#66A792" transform="translate(53.1875,211.9375)"/>
<path d="M0 0 C0 0.66 0 1.32 0 2 C0.66 2 1.32 2 2 2 C1.67 4.64 1.34 7.28 1 10 C0.67 10 0.34 10 0 10 C0 8.35 0 6.7 0 5 C-0.99 5 -1.98 5 -3 5 C-3.2475 5.78375 -3.495 6.5675 -3.75 7.375 C-5.15389099 10.32317108 -6.00675737 10.9024777 -9 12 C-8.360625 11.113125 -7.72125 10.22625 -7.0625 9.3125 C-5.16305518 6.2618765 -4.58957128 4.43916582 -4 1 C-2 0 -2 0 0 0 Z " fill="#82B0A2" transform="translate(386,235)"/>
<path d="M0 0 C2.64 0.33 5.28 0.66 8 1 C7.67 2.65 7.34 4.3 7 6 C4.69 6 2.38 6 0 6 C0 4.02 0 2.04 0 0 Z " fill="#5E9A86" transform="translate(452,262)"/>
<path d="M0 0 C1.32 0.33 2.64 0.66 4 1 C4 3.97 4 6.94 4 10 C3.67 10 3.34 10 3 10 C3 8.02 3 6.04 3 4 C2.01 4 1.02 4 0 4 C0 6.31 0 8.62 0 11 C-0.66 11 -1.32 11 -2 11 C-2.05399736 9.54207116 -2.09279177 8.08357288 -2.125 6.625 C-2.15980469 5.40683594 -2.15980469 5.40683594 -2.1953125 4.1640625 C-2 2 -2 2 0 0 Z " fill="#7DADA0" transform="translate(274,227)"/>
<path d="M0 0 C0.598125 0.20625 1.19625 0.4125 1.8125 0.625 C2.9375 6.375 2.9375 6.375 1.8125 8.625 C0.8225 8.625 -0.1675 8.625 -1.1875 8.625 C-3.1675 5.16 -3.1675 5.16 -5.1875 1.625 C-2.1875 -0.375 -2.1875 -0.375 0 0 Z " fill="#4B9880" transform="translate(86.1875,223.375)"/>
<path d="M0 0 C1.98 0 3.96 0 6 0 C6 1.32 6 2.64 6 4 C-3.22551253 8.59225513 -3.22551253 8.59225513 -9 8 C-9 7.34 -9 6.68 -9 6 C-3.555 5.505 -3.555 5.505 2 5 C2 3.68 2 2.36 2 1 C1.34 0.67 0.68 0.34 0 0 Z " fill="#82AD9E" transform="translate(313,261)"/>
<path d="M0 0 C2.125 0.375 2.125 0.375 4 1 C4 1.66 4 2.32 4 3 C4.66 3 5.32 3 6 3 C6.33 3.99 6.66 4.98 7 6 C6.01 6.66 5.02 7.32 4 8 C3.27617533 10.05925139 3.27617533 10.05925139 3 12 C2 11 2 11 1.9375 7.9375 C1.958125 6.968125 1.97875 5.99875 2 5 C1.34 5 0.68 5 0 5 C0 4.34 0 3.68 0 3 C-0.66 2.67 -1.32 2.34 -2 2 C-1.34 1.34 -0.68 0.68 0 0 Z " fill="#5E9E8C" transform="translate(97,241)"/>
<path d="M0 0 C2.31 0 4.62 0 7 0 C7 1.65 7 3.3 7 5 C4.36 5 1.72 5 -1 5 C-0.67 3.35 -0.34 1.7 0 0 Z " fill="#649C8A" transform="translate(279,238)"/>
<path d="M0 0 C1.65 1.32 3.3 2.64 5 4 C4 6 4 6 2 7 C2.33 7.99 2.66 8.98 3 10 C3.66 10 4.32 10 5 10 C4.67 11.32 4.34 12.64 4 14 C2.02 11.36 0.04 8.72 -2 6 C-1.34 5.67 -0.68 5.34 0 5 C0 3.35 0 1.7 0 0 Z " fill="#76B2A2" transform="translate(94,236)"/>
<path d="M0 0 C0.99 0 1.98 0 3 0 C3.66 1.98 4.32 3.96 5 6 C2 8 2 8 -1 8 C-1.33 7.01 -1.66 6.02 -2 5 C-2.66 4.34 -3.32 3.68 -4 3 C-3.01 2.67 -2.02 2.34 -1 2 C-0.67 1.34 -0.34 0.68 0 0 Z " fill="#519882" transform="translate(79,216)"/>
<path d="M0 0 C0.99 0.33 1.98 0.66 3 1 C-0.13923823 4.39271709 -3.65631114 6.4450608 -8 8 C-11 7.75 -11 7.75 -13 7 C-12.34 6.67 -11.68 6.34 -11 6 C-11 5.34 -11 4.68 -11 4 C-10.113125 3.855625 -9.22625 3.71125 -8.3125 3.5625 C-5.52882354 3.08980022 -2.76516243 2.56929815 0 2 C0 1.34 0 0.68 0 0 Z " fill="#6FA998" transform="translate(137,259)"/>
<path d="M0 0 C0.33 0 0.66 0 1 0 C1.33 2.97 1.66 5.94 2 9 C2.66 9 3.32 9 4 9 C5.125 12.75 5.125 12.75 4 15 C3.01 15 2.02 15 1 15 C1 14.34 1 13.68 1 13 C-0.65 12.67 -2.3 12.34 -4 12 C-2.68 11.67 -1.36 11.34 0 11 C0 7.37 0 3.74 0 0 Z " fill="#7CAD9F" transform="translate(25,185)"/>
<path d="M0 0 C-1.65 0.33 -3.3 0.66 -5 1 C-5 2.32 -5 3.64 -5 5 C-5.99 5 -6.98 5 -8 5 C-8.66 5.66 -9.32 6.32 -10 7 C-11.65 5.68 -13.3 4.36 -15 3 C-13.06643218 2.30151736 -11.12797702 1.61655186 -9.1875 0.9375 C-8.10855469 0.55464844 -7.02960938 0.17179687 -5.91796875 -0.22265625 C-3 -1 -3 -1 0 0 Z " fill="#74AC9B" transform="translate(108,266)"/>
<path d="M0 0 C0.99 0 1.98 0 3 0 C3.33 1.32 3.66 2.64 4 4 C0.92805092 5.53597454 -1.60244293 5.2265038 -5 5 C-8.4375 3.5 -8.4375 3.5 -11 2 C-8.47946405 0.73973202 -7.1457902 1.08125555 -4.375 1.4375 C-3.14910156 1.59025391 -3.14910156 1.59025391 -1.8984375 1.74609375 C-0.95871094 1.87177734 -0.95871094 1.87177734 0 2 C0 1.34 0 0.68 0 0 Z " fill="#76AE9B" transform="translate(481,264)"/>
<path d="M0 0 C1.37478516 0.01740234 1.37478516 0.01740234 2.77734375 0.03515625 C3.69644531 0.04417969 4.61554688 0.05320313 5.5625 0.0625 C6.27277344 0.07410156 6.98304688 0.08570313 7.71484375 0.09765625 C7.71484375 1.08765625 7.71484375 2.07765625 7.71484375 3.09765625 C4.08484375 3.42765625 0.45484375 3.75765625 -3.28515625 4.09765625 C-3.28515625 0.14039129 -3.28515625 0.14039129 0 0 Z " fill="#4B917A" transform="translate(477.28515625,237.90234375)"/>
<path d="M0 0 C1.32 1.32 2.64 2.64 4 4 C3.34 4.66 2.68 5.32 2 6 C1.34 6 0.68 6 0 6 C0 8.46278801 0.85452863 9.85224119 2 12 C-0.79828356 11.61402985 -1.8205884 11.19863427 -3.75 9.0625 C-5 7 -5 7 -5 5 C-3.35 4.34 -1.7 3.68 0 3 C0 2.01 0 1.02 0 0 Z " fill="#6EA996" transform="translate(83,219)"/>
<path d="M0 0 C0.66 0.99 1.32 1.98 2 3 C2.70125 3.94875 3.4025 4.8975 4.125 5.875 C6.0264211 9.04403516 6.4224625 10.40906879 6 14 C5.01 14.495 5.01 14.495 4 15 C3.67 14.01 3.34 13.02 3 12 C2.34 11.34 1.68 10.68 1 10 C1 9.01 1 8.02 1 7 C0.34 6.34 -0.32 5.68 -1 5 C-0.625 2.375 -0.625 2.375 0 0 Z " fill="#72AA9B" transform="translate(50,257)"/>
<path d="M0 0 C0.33 0.66 0.66 1.32 1 2 C0.07989717 4.3659787 -0.92863949 6.69855891 -2 9 C-2.33 9.763125 -2.66 10.52625 -3 11.3125 C-4 13 -4 13 -7 15 C-7 14.34 -7 13.68 -7 13 C-7.66 13 -8.32 13 -9 13 C-9 12.34 -9 11.68 -9 11 C-8.34 11 -7.68 11 -7 11 C-7 10.34 -7 9.68 -7 9 C-6.34 9 -5.68 9 -5 9 C-4.731875 8.443125 -4.46375 7.88625 -4.1875 7.3125 C-2.89877353 4.80287477 -1.47073522 2.40665764 0 0 Z " fill="#72AA98" transform="translate(169,224)"/>
<path d="M0 0 C0.66 0.33 1.32 0.66 2 1 C1.67 3.64 1.34 6.28 1 9 C-0.32 9 -1.64 9 -3 9 C-3 6.36 -3 3.72 -3 1 C-2.01 0.67 -1.02 0.34 0 0 Z " fill="#5C9A84" transform="translate(329,231)"/>
<path d="M0 0 C1.32 0.33 2.64 0.66 4 1 C4 4.3 4 7.6 4 11 C2.68 10.34 1.36 9.68 0 9 C0 6.03 0 3.06 0 0 Z " fill="#4C937C" transform="translate(346,233)"/>
<path d="M0 0 C4.75 0.75 4.75 0.75 7 3 C10.12196336 3.46486718 10.12196336 3.46486718 13.625 3.625 C14.81351563 3.69976562 16.00203125 3.77453125 17.2265625 3.8515625 C18.14179688 3.90054688 19.05703125 3.94953125 20 4 C15.72141938 6.85238708 11.39339641 6.47867928 6.5 5.5 C6.005 5.335 5.51 5.17 5 5 C5 4.34 5 3.68 5 3 C4.360625 2.87625 3.72125 2.7525 3.0625 2.625 C2.381875 2.41875 1.70125 2.2125 1 2 C0.67 1.34 0.34 0.68 0 0 Z " fill="#87B4A6" transform="translate(8,210)"/>
<path d="M0 0 C0.99 0.66 1.98 1.32 3 2 C-0.625 8.875 -0.625 8.875 -4 10 C-4.41176754 6.39703406 -4.1535853 5.21597933 -2 2.1875 C-1.34 1.465625 -0.68 0.74375 0 0 Z " fill="#67A493" transform="translate(330,258)"/>
<path d="M0 0 C2.0625 1.6875 2.0625 1.6875 4 4 C3.75 6.75 3.75 6.75 3 9 C1.35 9 -0.3 9 -2 9 C-2 7.35 -2 5.7 -2 4 C-1.34 4 -0.68 4 0 4 C0 2.68 0 1.36 0 0 Z " fill="#64A28E" transform="translate(345,238)"/>
<path d="M0 0 C0.33 0 0.66 0 1 0 C1.33910994 2.04071515 1.67102704 4.08262621 2 6.125 C2.185625 7.26195312 2.37125 8.39890625 2.5625 9.5703125 C2.96956049 12.76137602 3.07809902 15.78817791 3 19 C2.34 19 1.68 19 1 19 C-0.25433458 15.23699626 -0.10695422 11.72789091 -0.0625 7.8125 C-0.05798828 7.06291016 -0.05347656 6.31332031 -0.04882812 5.54101562 C-0.03706354 3.69397617 -0.01912865 1.84697787 0 0 Z " fill="#74AF9D" transform="translate(37,231)"/>
<path d="M0 0 C0.33 0 0.66 0 1 0 C1.95619733 3.99795892 2.1039592 7.70803922 2.0625 11.8125 C2.05347656 12.97394531 2.04445313 14.13539063 2.03515625 15.33203125 C2.02355469 16.21246094 2.01195312 17.09289062 2 18 C-0.67927341 13.98108988 -0.15601248 11.75838077 0 7 C-0.66 6.67 -1.32 6.34 -2 6 C-1.34 4.02 -0.68 2.04 0 0 Z " fill="#6FAEA2" transform="translate(263,247)"/>
<path d="M0 0 C0.33 0 0.66 0 1 0 C1 1.98 1 3.96 1 6 C1.66 6 2.32 6 3 6 C3 5.34 3 4.68 3 4 C3.66 4 4.32 4 5 4 C5.33 6.64 5.66 9.28 6 12 C5.67 11.34 5.34 10.68 5 10 C4.34 10 3.68 10 3 10 C3 9.34 3 8.68 3 8 C2.34 8 1.68 8 1 8 C1 9.98 1 11.96 1 14 C0.67 14 0.34 14 0 14 C0 9.38 0 4.76 0 0 Z " fill="#76AA9A" transform="translate(233,246)"/>
<path d="M0 0 C0.33 0 0.66 0 1 0 C1.36090226 7.33834586 1.36090226 7.33834586 -0.125 10.0625 C-2.93542716 11.46771358 -5.03208058 10.72549141 -8 10 C-7.34 8.68 -6.68 7.36 -6 6 C-6 6.66 -6 7.32 -6 8 C-4.02 7.67 -2.04 7.34 0 7 C0 4.69 0 2.38 0 0 Z " fill="#86B5A5" transform="translate(146,235)"/>
<path d="M0 0 C4.67692308 1.47692308 4.67692308 1.47692308 6.3125 4.125 C6.539375 4.74375 6.76625 5.3625 7 6 C5.35 5.67 3.7 5.34 2 5 C2 5.66 2 6.32 2 7 C1.34 7 0.68 7 0 7 C0 6.34 0 5.68 0 5 C-1.32 4.67 -2.64 4.34 -4 4 C-2.68 4 -1.36 4 0 4 C0 2.68 0 1.36 0 0 Z " fill="#79AC9D" transform="translate(427,238)"/>
<path d="M0 0 C0.99 0 1.98 0 3 0 C3 2.64 3 5.28 3 8 C1.68 8.33 0.36 8.66 -1 9 C-1.09765625 2.84765625 -1.09765625 2.84765625 -1 1 C-0.67 0.67 -0.34 0.34 0 0 Z " fill="#49927B" transform="translate(447,229)"/>
<path d="M0 0 C4.54039211 3.92682561 6.29490089 7.22160857 8 13 C7.67 13.66 7.34 14.32 7 15 C6.67 13.35 6.34 11.7 6 10 C5.34 10 4.68 10 4 10 C4 9.34 4 8.68 4 8 C3.34 8 2.68 8 2 8 C1.34 5.36 0.68 2.72 0 0 Z " fill="#81B2A2" transform="translate(44,164)"/>
<path d="M0 0 C0.99 0.66 1.98 1.32 3 2 C2.50886719 2.54140625 2.01773437 3.0828125 1.51171875 3.640625 C-0.3667612 6.57241283 -0.31060725 8.30299691 -0.1875 11.75 C-0.16042969 12.73484375 -0.13335937 13.7196875 -0.10546875 14.734375 C-0.07066406 15.48203125 -0.03585937 16.2296875 0 17 C-0.66 16.67 -1.32 16.34 -2 16 C-2 11.05 -2 6.1 -2 1 C-1.34 0.67 -0.68 0.34 0 0 Z " fill="#86B7A8" transform="translate(412,242)"/>
<path d="M0 0 C0 0.66 0 1.32 0 2 C1.65 2.33 3.3 2.66 5 3 C5 3.99 5 4.98 5 6 C3.68 6 2.36 6 1 6 C1 5.01 1 4.02 1 3 C-1.97 3 -4.94 3 -8 3 C-3.5 0 -3.5 0 0 0 Z " fill="#4C937E" transform="translate(204,225)"/>
<path d="M0 0 C0.33 0.99 0.66 1.98 1 3 C0.01 3.99 -0.98 4.98 -2 6 C-2 5.34 -2 4.68 -2 4 C-3.32 3.67 -4.64 3.34 -6 3 C-6 2.34 -6 1.68 -6 1 C-6.66 0.67 -7.32 0.34 -8 0 C-4.71303767 -0.79953138 -3.28976808 -1.09658936 0 0 Z " fill="#5BA18C" transform="translate(174,206)"/>
<path d="M0 0 C0 0.33 0 0.66 0 1 C-6.79839071 1.31620422 -13.30983984 0.12676382 -20 -1 C-20 -1.33 -20 -1.66 -20 -2 C-6.3667426 -3.70159453 -6.3667426 -3.70159453 0 0 Z " fill="#77AF9B" transform="translate(156,199)"/>
<path d="M0 0 C0.66 0 1.32 0 2 0 C2 0.66 2 1.32 2 2 C2.66 2 3.32 2 4 2 C4.33 3.98 4.66 5.96 5 8 C4.01 8 3.02 8 2 8 C2 7.34 2 6.68 2 6 C1.34 6 0.68 6 0 6 C0 4.02 0 2.04 0 0 Z " fill="#4A9179" transform="translate(234,254)"/>
<path d="M0 0 C0.66 0 1.32 0 2 0 C2.66 2.97 3.32 5.94 4 9 C2.35 8.67 0.7 8.34 -1 8 C-1.08226668 4.95613276 -0.97608217 2.92824652 0 0 Z " fill="#51957F" transform="translate(466,252)"/>
<path d="M0 0 C0.33 0 0.66 0 1 0 C1.33 1.65 1.66 3.3 2 5 C4.97 5.495 4.97 5.495 8 6 C7.401875 6.28875 6.80375 6.5775 6.1875 6.875 C3.80672208 8.04742026 3.80672208 8.04742026 1 10 C-0.32 9.34 -1.64 8.68 -3 8 C-2.67 7.34 -2.34 6.68 -2 6 C-1.34 6 -0.68 6 0 6 C0 4.02 0 2.04 0 0 Z " fill="#87B9AC" transform="translate(95,223)"/>
<path d="M0 0 C0.99 1.485 0.99 1.485 2 3 C1.34 3.66 0.68 4.32 0 5 C0 3.35 0 1.7 0 0 Z M-7 3 C-6.34 3 -5.68 3 -5 3 C-5 3.66 -5 4.32 -5 5 C-3.68 4.67 -2.36 4.34 -1 4 C-0.31292445 6.49064888 0 8.37886292 0 11 C-0.66 11 -1.32 11 -2 11 C-3.2890625 9.50390625 -3.2890625 9.50390625 -4.625 7.5625 C-5.07101563 6.92441406 -5.51703125 6.28632813 -5.9765625 5.62890625 C-7 4 -7 4 -7 3 Z " fill="#76AD9E" transform="translate(78,213)"/>
<path d="M0 0 C1.98 0.99 3.96 1.98 6 3 C4.68 3.33 3.36 3.66 2 4 C2 5.65 2 7.3 2 9 C0 8 0 8 -1.125 4.9375 C-1.41375 3.968125 -1.7025 2.99875 -2 2 C-1.34 1.34 -0.68 0.68 0 0 Z " fill="#82AFA3" transform="translate(69,207)"/>
<path d="M0 0 C-0.969375 0.598125 -1.93875 1.19625 -2.9375 1.8125 C-6.23052042 3.71127509 -6.23052042 3.71127509 -7 7 C-8.9375 6.6875 -8.9375 6.6875 -11 6 C-11.33 5.01 -11.66 4.02 -12 3 C-10.3789897 2.30314502 -8.75303934 1.61777139 -7.125 0.9375 C-6.22007813 0.55464844 -5.31515625 0.17179687 -4.3828125 -0.22265625 C-2 -1 -2 -1 0 0 Z " fill="#7BAFA0" transform="translate(121,261)"/>
<path d="M0 0 C5.94 0 11.88 0 18 0 C18.33 1.32 18.66 2.64 19 4 C18.01 4.33 17.02 4.66 16 5 C16 3.68 16 2.36 16 1 C10.72 1 5.44 1 0 1 C0 0.67 0 0.34 0 0 Z " fill="#71A191" transform="translate(334,263)"/>
<path d="M0 0 C0.99 0.33 1.98 0.66 3 1 C2.38125 1.2475 1.7625 1.495 1.125 1.75 C-1.42139034 3.24787667 -1.82683417 4.34082412 -3 7 C-3.97581759 8.35113205 -4.97029741 9.68946944 -6 11 C-6.125 8.125 -6.125 8.125 -6 5 C-5.34 4.34 -4.68 3.68 -4 3 C-3.34 3.33 -2.68 3.66 -2 4 C-1.34 2.68 -0.68 1.36 0 0 Z " fill="#79AB9B" transform="translate(20,236)"/>
<path d="M0 0 C0.33 0.99 0.66 1.98 1 3 C0.34 3 -0.32 3 -1 3 C-1.12375 3.7425 -1.2475 4.485 -1.375 5.25 C-1.95486701 7.80141485 -2.73708739 9.7267573 -4 12 C-4.66 12 -5.32 12 -6 12 C-6.33 12.99 -6.66 13.98 -7 15 C-6.39254603 10.14036821 -4.27241033 6.2594482 -2 2 C-1.34 2 -0.68 2 0 2 C0 1.34 0 0.68 0 0 Z " fill="#80AF9F" transform="translate(33,169)"/>
<path d="M0 0 C0.66 0.33 1.32 0.66 2 1 C1.67 1.66 1.34 2.32 1 3 C1.66 3.33 2.32 3.66 3 4 C1.3603125 4.4021875 1.3603125 4.4021875 -0.3125 4.8125 C-3.61692663 5.87663739 -4.94960422 6.34654664 -7 9 C-7.66 8.34 -8.32 7.68 -9 7 C-6.03 4.69 -3.06 2.38 0 0 Z " fill="#81B7A4" transform="translate(154,240)"/>
<path d="M0 0 C0.99 0.33 1.98 0.66 3 1 C2.67 2.98 2.34 4.96 2 7 C1.01 7.33 0.02 7.66 -1 8 C-1.33 5.69 -1.66 3.38 -2 1 C-1.34 0.67 -0.68 0.34 0 0 Z " fill="#43957C" transform="translate(98,222)"/>
<path d="M0 0 C2.12508244 3.18762365 2.5020163 5.26512223 3 9 C1.125 8.8125 1.125 8.8125 -1 8 C-2.25 5.4375 -2.25 5.4375 -3 3 C-2.01 2.01 -1.02 1.02 0 0 Z " fill="#41967D" transform="translate(131,202)"/>
<path d="M0 0 C2.64 0.33 5.28 0.66 8 1 C8 1.99 8 2.98 8 4 C7.01 4.66 6.02 5.32 5 6 C4.01 5.67 3.02 5.34 2 5 C2.33 4.01 2.66 3.02 3 2 C2.01 2 1.02 2 0 2 C0 1.34 0 0.68 0 0 Z " fill="#42967C" transform="translate(139,190)"/>
<path d="M0 0 C1.65 0 3.3 0 5 0 C5 1.98 5 3.96 5 6 C4.34 5.67 3.68 5.34 3 5 C3.33 3.68 3.66 2.36 4 1 C3.34 1 2.68 1 2 1 C2 1.66 2 2.32 2 3 C1.34 3 0.68 3 0 3 C0 2.01 0 1.02 0 0 Z M-2 2 C-1.34 2.66 -0.68 3.32 0 4 C-1.32 4.99 -2.64 5.98 -4 7 C-4 5.68 -4 4.36 -4 3 C-3.34 2.67 -2.68 2.34 -2 2 Z " fill="#46937B" transform="translate(125,272)"/>
<path d="M0 0 C0.625 1.875 0.625 1.875 1 4 C0.34 4.66 -0.32 5.32 -1 6 C-2.32 6 -3.64 6 -5 6 C-5.33 4.35 -5.66 2.7 -6 1 C-3.92446352 0.4465236 -2.15634036 0 0 0 Z " fill="#589C80" transform="translate(264,262)"/>
<path d="M0 0 C1.27351308 2.54702616 0.80191925 3.4282945 0.0625 6.125 C-0.13214844 6.84945312 -0.32679687 7.57390625 -0.52734375 8.3203125 C-0.68332031 8.87460938 -0.83929688 9.42890625 -1 10 C-1.99 10 -2.98 10 -4 10 C-3.71872579 8.51882199 -3.42466268 7.04006751 -3.125 5.5625 C-2.96257812 4.73878906 -2.80015625 3.91507813 -2.6328125 3.06640625 C-2.42398438 2.38449219 -2.21515625 1.70257813 -2 1 C-1.34 0.67 -0.68 0.34 0 0 Z " fill="#47947E" transform="translate(80,246)"/>
<path d="M0 0 C0.33 0.66 0.66 1.32 1 2 C1.99 2.33 2.98 2.66 4 3 C-1.75 7 -1.75 7 -4 7 C-4 5.35 -4 3.7 -4 2 C-2.68 1.34 -1.36 0.68 0 0 Z " fill="#74B1A0" transform="translate(155,247)"/>
<path d="M0 0 C0 0.99 0 1.98 0 3 C-0.99 3.66 -1.98 4.32 -3 5 C-3.66 5.66 -4.32 6.32 -5 7 C-7.625 7.625 -7.625 7.625 -10 8 C-8.625 6 -8.625 6 -7 4 C-6.34 4 -5.68 4 -5 4 C-5 3.34 -5 2.68 -5 2 C-2 0 -2 0 0 0 Z " fill="#7FB3A3" transform="translate(27,222)"/>
<path d="M0 0 C0.66 0.33 1.32 0.66 2 1 C1.8125 3.3125 1.8125 3.3125 1 6 C-1.4375 7.875 -1.4375 7.875 -4 9 C-4.66 8.67 -5.32 8.34 -6 8 C-4.02 5.36 -2.04 2.72 0 0 Z " fill="#77AA9D" transform="translate(102,214)"/>
<path d="M0 0 C0.66 0.66 1.32 1.32 2 2 C1.525625 2.45375 1.05125 2.9075 0.5625 3.375 C-1.09027808 4.93258204 -1.09027808 4.93258204 -2 7 C-3.98 7 -5.96 7 -8 7 C-5.42215154 4.35247996 -3.08351902 2.05567935 0 0 Z " fill="#77AC9E" transform="translate(42,162)"/>
<path d="M0 0 C0.66 0 1.32 0 2 0 C2 0.66 2 1.32 2 2 C3.32 2 4.64 2 6 2 C6 2.66 6 3.32 6 4 C7.32 4.33 8.64 4.66 10 5 C8.35 5.66 6.7 6.32 5 7 C0 1.125 0 1.125 0 0 Z " fill="#83B0A5" transform="translate(103,256)"/>
<path d="M0 0 C0.33 0.99 0.66 1.98 1 3 C-0.65 4.65 -2.3 6.3 -4 8 C-4.33 6.02 -4.66 4.04 -5 2 C-2 0 -2 0 0 0 Z " fill="#49937D" transform="translate(7,254)"/>
<path d="M0 0 C0.33 0.99 0.66 1.98 1 3 C2.32 3 3.64 3 5 3 C4.67 3.99 4.34 4.98 4 6 C1.36 6 -1.28 6 -4 6 C-2.68 4.02 -1.36 2.04 0 0 Z " fill="#7AAF9D" transform="translate(342,244)"/>
<path d="M0 0 C0.12375 0.61875 0.2475 1.2375 0.375 1.875 C0.87197356 4.19120832 0.87197356 4.19120832 3 6 C0 7 0 7 -3.1875 5.5625 C-4.115625 5.046875 -5.04375 4.53125 -6 4 C-5.38125 3.71125 -4.7625 3.4225 -4.125 3.125 C-1.86674235 2.06279958 -1.86674235 2.06279958 0 0 Z " fill="#77B1A0" transform="translate(20,273)"/>
<path d="M0 0 C2.64 0.33 5.28 0.66 8 1 C8 1.66 8 2.32 8 3 C4.67465243 4.10844919 2.37817425 3.84454356 -1 3 C-0.67 2.01 -0.34 1.02 0 0 Z " fill="#4A937A" transform="translate(473,263)"/>
<path d="M0 0 C6.75 1.625 6.75 1.625 9 5 C3.5 5.36666667 3.5 5.36666667 1.125 3.625 C0 2 0 2 0 0 Z " fill="#48937C" transform="translate(241,263)"/>
<path d="M0 0 C1.98 0 3.96 0 6 0 C6.33 1.32 6.66 2.64 7 4 C4.69 4 2.38 4 0 4 C0 2.68 0 1.36 0 0 Z " fill="#5BA390" transform="translate(391,259)"/>
<path d="M0 0 C0.33 0 0.66 0 1 0 C1.33 3.3 1.66 6.6 2 10 C2.99 10 3.98 10 5 10 C5 10.99 5 11.98 5 13 C4.01 13.33 3.02 13.66 2 14 C1.34 13.67 0.68 13.34 0 13 C0 8.71 0 4.42 0 0 Z " fill="#4C8C77" transform="translate(391,246)"/>
<path d="M0 0 C2.475 0.495 2.475 0.495 5 1 C5.33 2.98 5.66 4.96 6 7 C5.67 6.34 5.34 5.68 5 5 C3.68 5.33 2.36 5.66 1 6 C0.67 4.02 0.34 2.04 0 0 Z " fill="#5C9C87" transform="translate(381,230)"/>
<path d="M0 0 C-0.33 0.99 -0.66 1.98 -1 3 C-2.32 3 -3.64 3 -5 3 C-5 3.99 -5 4.98 -5 6 C-3.68 6.66 -2.36 7.32 -1 8 C-1.99 9.485 -1.99 9.485 -3 11 C-5.09749995 8.64031256 -5.96905704 7.45383006 -6.1875 4.25 C-6.125625 3.5075 -6.06375 2.765 -6 2 C-2.25 0 -2.25 0 0 0 Z " fill="#89B4A6" transform="translate(8,197)"/>
<path d="M0 0 C0.99 0.33 1.98 0.66 3 1 C3 1.66 3 2.32 3 3 C3.66 3.33 4.32 3.66 5 4 C1.37 4.66 -2.26 5.32 -6 6 C-6 5.34 -6 4.68 -6 4 C-4.35 3.67 -2.7 3.34 -1 3 C-0.67 2.01 -0.34 1.02 0 0 Z " fill="#6AA894" transform="translate(93,274)"/>
<path d="M0 0 C1.32 0 2.64 0 4 0 C4 0.99 4 1.98 4 3 C4.33 2.34 4.66 1.68 5 1 C6.32 1.33 7.64 1.66 9 2 C8.34 2 7.68 2 7 2 C7 2.66 7 3.32 7 4 C5.68 4.33 4.36 4.66 3 5 C3 4.34 3 3.68 3 3 C2.01 3 1.02 3 0 3 C0 2.01 0 1.02 0 0 Z " fill="#499179" transform="translate(414,263)"/>
<path d="M0 0 C3.125 0.375 3.125 0.375 6 1 C5.625 2.9375 5.625 2.9375 5 5 C4.01 5.495 4.01 5.495 3 6 C2.54625 5.525625 2.0925 5.05125 1.625 4.5625 C0.06741796 2.90972192 0.06741796 2.90972192 -2 2 C-1.34 1.34 -0.68 0.68 0 0 Z M2 1 C3 3 3 3 3 3 Z " fill="#6FAC95" transform="translate(80,244)"/>
<path d="M0 0 C1.57841492 2.95952797 2 4.67919329 2 8 C0.35 8.66 -1.3 9.32 -3 10 C-2.39009109 6.44219804 -1.4216319 3.3171411 0 0 Z " fill="#83B8A9" transform="translate(42,215)"/>
<path d="M0 0 C3.3 1.65 6.6 3.3 10 5 C9.67 5.66 9.34 6.32 9 7 C2.29787234 5.06382979 2.29787234 5.06382979 0 2 C0 1.34 0 0.68 0 0 Z " fill="#6FA894" transform="translate(15,266)"/>
<path d="M0 0 C0.99 0.33 1.98 0.66 3 1 C2.67 2.32 2.34 3.64 2 5 C0.68 5.33 -0.64 5.66 -2 6 C-2 5.34 -2 4.68 -2 4 C-2.99 3.67 -3.98 3.34 -5 3 C-4.360625 2.87625 -3.72125 2.7525 -3.0625 2.625 C-2.0415625 2.315625 -2.0415625 2.315625 -1 2 C-0.67 1.34 -0.34 0.68 0 0 Z " fill="#7DAF9E" transform="translate(300,261)"/>
<path d="M0 0 C1.65 0 3.3 0 5 0 C5 2.97 5 5.94 5 9 C3 5 3 5 3 3 C2.01 2.67 1.02 2.34 0 2 C0 1.34 0 0.68 0 0 Z " fill="#77A799" transform="translate(219,224)"/>
<path d="M0 0 C0.33 0.66 0.66 1.32 1 2 C1.66 2 2.32 2 3 2 C1.25 6.875 1.25 6.875 -1 8 C-1.5625 6.0625 -1.5625 6.0625 -2 4 C-1.67 3.67 -1.34 3.34 -1 3 C-1.66 2.34 -2.32 1.68 -3 1 C-2.01 0.67 -1.02 0.34 0 0 Z " fill="#639D8F" transform="translate(105,220)"/>
<path d="M0 0 C3 3.75 3 3.75 3 6 C3.66 6.33 4.32 6.66 5 7 C4.67 8.32 4.34 9.64 4 11 C3.13050683 9.92892883 2.27985795 8.84254056 1.4375 7.75 C0.96183594 7.14671875 0.48617187 6.5434375 -0.00390625 5.921875 C-1 4 -1 4 -0.65234375 1.765625 C-0.43707031 1.18296875 -0.22179687 0.6003125 0 0 Z " fill="#7FB0A2" transform="translate(127,205)"/>
<path d="M0 0 C3.85645121 -0.22036864 6.49223216 0.39644899 10 2 C9.67 2.99 9.34 3.98 9 5 C5.54074837 3.7508258 2.85306797 2.32472205 0 0 Z " fill="#71AA9A" transform="translate(111,197)"/>
<path d="M0 0 C1.32 0.33 2.64 0.66 4 1 C4 1.66 4 2.32 4 3 C5.98 3.99 7.96 4.98 10 6 C10 6.33 10 6.66 10 7 C7.8125 7.375 7.8125 7.375 5 7 C2.96237639 5.16613875 1.61191578 3.25668209 0 1 C0 0.67 0 0.34 0 0 Z " fill="#8BB7AC" transform="translate(44,266)"/>
<path d="M0 0 C0 0.66 0 1.32 0 2 C-0.99 2.33 -1.98 2.66 -3 3 C-3.33 3.66 -3.66 4.32 -4 5 C-4.66 5 -5.32 5 -6 5 C-6 5.66 -6 6.32 -6 7 C-6.66 7 -7.32 7 -8 7 C-8.33 6.01 -8.66 5.02 -9 4 C-2.25 0 -2.25 0 0 0 Z " fill="#76AC9B" transform="translate(138,252)"/>
<path d="M0 0 C0.99 0 1.98 0 3 0 C2.67 2.31 2.34 4.62 2 7 C0.68 7 -0.64 7 -2 7 C-1.67 6.01 -1.34 5.02 -1 4 C-1 3.67 -1 3.34 -1 3 C-0.67 2.01 -0.34 1.02 0 0 Z " fill="#4A907B" transform="translate(468,241)"/>
<path d="M0 0 C2.64 0 5.28 0 8 0 C8.33 1.65 8.66 3.3 9 5 C4.545 3.02 4.545 3.02 0 1 C0 0.67 0 0.34 0 0 Z " fill="#7FB3A5" transform="translate(157,201)"/>
<path d="M0 0 C2.64 0 5.28 0 8 0 C7.67 1.32 7.34 2.64 7 4 C5.68 4 4.36 4 3 4 C1.25 2 1.25 2 0 0 Z " fill="#3F967A" transform="translate(158,197)"/>
<path d="M0 0 C0.79921875 0.00902344 1.5984375 0.01804688 2.421875 0.02734375 C3.02515625 0.03894531 3.6284375 0.05054688 4.25 0.0625 C0.75407222 2.39311852 -1.59130536 2.76545038 -5.75 3.0625 C-6.74 2.4025 -7.73 1.7425 -8.75 1.0625 C-5.75519083 0.1901588 -3.11424089 -0.04579766 0 0 Z " fill="#95BDB2" transform="translate(16.75,194.9375)"/>
<path d="M0 0 C1.32 0 2.64 0 4 0 C4 1.32 4 2.64 4 4 C2.02 4 0.04 4 -2 4 C-2 3.34 -2 2.68 -2 2 C-1.34 2 -0.68 2 0 2 C0 1.34 0 0.68 0 0 Z " fill="#5C9884" transform="translate(398,264)"/>
<path d="M0 0 C1.485 0.99 1.485 0.99 3 2 C3.29296875 4.1640625 3.29296875 4.1640625 3.1875 6.625 C3.16042969 7.44226563 3.13335937 8.25953125 3.10546875 9.1015625 C3.07066406 9.72804687 3.03585938 10.35453125 3 11 C1.0210244 7.36383344 0.4748935 4.11574371 0 0 Z " fill="#599C88" transform="translate(221,231)"/>
<path d="M0 0 C0.66 0 1.32 0 2 0 C2.625 1.875 2.625 1.875 3 4 C2.34 4.66 1.68 5.32 1 6 C0.01 5.67 -0.98 5.34 -2 5 C-2 4.67 -2 4.34 -2 4 C-2.66 3.67 -3.32 3.34 -4 3 C-2.68 2.67 -1.36 2.34 0 2 C0 1.34 0 0.68 0 0 Z " fill="#43947C" transform="translate(27,223)"/>
<path d="M0 0 C2.31 0.33 4.62 0.66 7 1 C7 1.66 7 2.32 7 3 C5.68 3 4.36 3 3 3 C2.34 4.32 1.68 5.64 1 7 C0.67 4.69 0.34 2.38 0 0 Z " fill="#90B9AF" transform="translate(32,204)"/>
<path d="M0 0 C0.66 0 1.32 0 2 0 C0.92289822 4.30840713 -0.03947516 7.63576723 -3 11 C-2.44894091 7.0507432 -1.61064629 3.65079826 0 0 Z " fill="#75AA9C" transform="translate(50,189)"/>
<path d="M0 0 C0 0.66 0 1.32 0 2 C-1.63064764 3.05771739 -3.30280873 4.05273046 -5 5 C-5.99 5.66 -6.98 6.32 -8 7 C-8.33 6.01 -8.66 5.02 -9 4 C-7.68 3.67 -6.36 3.34 -5 3 C-5 2.34 -5 1.68 -5 1 C-2 0 -2 0 0 0 Z " fill="#7BAB9D" transform="translate(70,189)"/>
<path d="M0 0 C0.99 0.33 1.98 0.66 3 1 C3 3.31 3 5.62 3 8 C2.01 7.67 1.02 7.34 0 7 C0 4.69 0 2.38 0 0 Z " fill="#4A937C" transform="translate(211,233)"/>
<path d="M0 0 C1.32 0 2.64 0 4 0 C4 0.66 4 1.32 4 2 C3.01 2.33 2.02 2.66 1 3 C0.67 5.64 0.34 8.28 0 11 C-0.33 11 -0.66 11 -1 11 C-1.02688151 9.35425434 -1.04634123 7.70838587 -1.0625 6.0625 C-1.07410156 5.14597656 -1.08570313 4.22945312 -1.09765625 3.28515625 C-1 1 -1 1 0 0 Z " fill="#95BDB2" transform="translate(446,227)"/>
<path d="M0 0 C3.68754757 0.49831724 5.60490662 1.10067643 8 4 C6.02 4 4.04 4 2 4 C1.34 2.68 0.68 1.36 0 0 Z " fill="#78AE9A" transform="translate(162,194)"/>
<path d="M0 0 C1.98 0 3.96 0 6 0 C6 1.32 6 2.64 6 4 C4.68 4 3.36 4 2 4 C2 3.01 2 2.02 2 1 C1.34 0.67 0.68 0.34 0 0 Z " fill="#4A907A" transform="translate(421,238)"/>
<path d="M0 0 C1.65 0 3.3 0 5 0 C4.01 1.485 4.01 1.485 3 3 C3.66 3.66 4.32 4.32 5 5 C3.35 5 1.7 5 0 5 C0 3.35 0 1.7 0 0 Z " fill="#73A593" transform="translate(440,238)"/>
<path d="M0 0 C1.65 0.33 3.3 0.66 5 1 C5 1.99 5 2.98 5 4 C2.69 3.67 0.38 3.34 -2 3 C-1.34 2.67 -0.68 2.34 0 2 C0 1.34 0 0.68 0 0 Z " fill="#569A85" transform="translate(299,239)"/>
<path d="M0 0 C2 3 2 3 1.8125 5.125 C1.544375 5.74375 1.27625 6.3625 1 7 C0.01 7.33 -0.98 7.66 -2 8 C-2.6875 6.25 -2.6875 6.25 -3 4 C-1.5625 1.75 -1.5625 1.75 0 0 Z " fill="#42947A" transform="translate(168,228)"/>
<path d="M0 0 C0.99 0 1.98 0 3 0 C3.1875 2.375 3.1875 2.375 3 5 C2.01 5.66 1.02 6.32 0 7 C0 4.69 0 2.38 0 0 Z " fill="#42957B" transform="translate(274,231)"/>
<path d="M0 0 C1 3 1 3 1 7 C-3.875 5.25 -3.875 5.25 -5 3 C-4.360625 2.87625 -3.72125 2.7525 -3.0625 2.625 C-2.0415625 2.315625 -2.0415625 2.315625 -1 2 C-0.67 1.34 -0.34 0.68 0 0 Z " fill="#47937B" transform="translate(154,192)"/>
<path d="M0 0 C3.63 0 7.26 0 11 0 C11 0.33 11 0.66 11 1 C7.04 1.66 3.08 2.32 -1 3 C-0.67 2.01 -0.34 1.02 0 0 Z " fill="#80BBA4" transform="translate(76,193)"/>
<path d="M0 0 C-0.99 1.485 -0.99 1.485 -2 3 C-5.625 3.1875 -5.625 3.1875 -9 3 C-6.38997624 -0.48003168 -4.1689578 -0.27793052 0 0 Z " fill="#64A391" transform="translate(93,270)"/>
<path d="M0 0 C-0.99 0.33 -1.98 0.66 -3 1 C-3 1.66 -3 2.32 -3 3 C-4.98 3.99 -4.98 3.99 -7 5 C-7.33 4.34 -7.66 3.68 -8 3 C-7 1 -7 1 -4.5625 -0.1875 C-2 -1 -2 -1 0 0 Z " fill="#46927B" transform="translate(110,266)"/>
<path d="M0 0 C1.65 0.33 3.3 0.66 5 1 C5 1.66 5 2.32 5 3 C2.04335481 4.4783226 -0.74229737 4.06032783 -4 4 C-4 3.67 -4 3.34 -4 3 C-2.35 2.67 -0.7 2.34 1 2 C0.67 1.34 0.34 0.68 0 0 Z " fill="#89BDAA" transform="translate(248,265)"/>
<path d="M0 0 C1.485 0.99 1.485 0.99 3 2 C2.67 3.65 2.34 5.3 2 7 C1.01 6.67 0.02 6.34 -1 6 C-1 2 -1 2 0 0 Z " fill="#80B3A2" transform="translate(427,260)"/>
<path d="M0 0 C1 2 1 2 0.375 4.0625 C-1 6 -1 6 -3.625 6.75 C-4.800625 6.87375 -4.800625 6.87375 -6 7 C-4.02 4.69 -2.04 2.38 0 0 Z " fill="#7BB1A2" transform="translate(77,247)"/>
<path d="M0 0 C4.67692308 1.47692308 4.67692308 1.47692308 6.3125 4.125 C6.539375 4.74375 6.76625 5.3625 7 6 C5.1875 5.8125 5.1875 5.8125 3 5 C1.25 2.4375 1.25 2.4375 0 0 Z " fill="#7EAC9D" transform="translate(78,225)"/>
<path d="M0 0 C3.73487777 0.4979837 5.81237635 0.87491756 9 3 C8.67 3.66 8.34 4.32 8 5 C6.02 4.34 4.04 3.68 2 3 C2 2.34 2 1.68 2 1 C1.34 0.67 0.68 0.34 0 0 Z " fill="#9ABFB5" transform="translate(202,224)"/>
<path d="M0 0 C2.475 0.99 2.475 0.99 5 2 C4.67 2.99 4.34 3.98 4 5 C2.68 5 1.36 5 0 5 C0 3.35 0 1.7 0 0 Z " fill="#40967B" transform="translate(73,213)"/>
<path d="M0 0 C1.98 0 3.96 0 6 0 C6.33 0.66 6.66 1.32 7 2 C6.34 2.66 5.68 3.32 5 4 C3.68 3.01 2.36 2.02 1 1 C1 1.66 1 2.32 1 3 C0.34 3 -0.32 3 -1 3 C-0.67 2.01 -0.34 1.02 0 0 Z " fill="#5CA18C" transform="translate(166,198)"/>
</svg>
